<svg width="29" height="40" fill="none" xmlns="http://www.w3.org/2000/svg" viewBox="0 0 29 40" data-ratio="vertical"><path d="m25.805 8.427.556.278 1.072-2.102.59.211v22.724l-.314.18a26.463 26.463 0 0 1-26.445.009l-.313-.18V6.813l.59-.211 1.071 2.102.557-.278a25.267 25.267 0 0 1 22.636 0Z" fill="#E2DAC4"></path><path d="M28.023 30.262a27.09 27.09 0 0 1-27.072.009v1.94l13.488 6.738 13.584-6.738v-1.949Z" fill="url(#a)"></path><path d="M26.085 7.866a25.895 25.895 0 0 0-23.197 0L.846 3.855a30.425 30.425 0 0 1 27.281 0l-2.042 4.01Z" fill="url(#b)"></path><path fill-rule="evenodd" clip-rule="evenodd" d="m26.361 8.705-.557-.278a25.267 25.267 0 0 0-22.635 0l-.557.278-.283-.555-.741-1.455L.287 4.14 0 3.578l.565-.283a31.053 31.053 0 0 1 27.843.001l.565.283-2.612 5.126Zm-.276-.84a25.895 25.895 0 0 0-23.197 0l-.74-1.454c-.34-.665-.678-1.33-1.017-1.996l-.285-.559a30.423 30.423 0 0 1 27.282 0l-2.043 4.01Z" fill="#243B2E"></path><path fill-rule="evenodd" clip-rule="evenodd" d="m27.433 6.603.59.211v25.397l-13.584 6.738L.951 32.21V6.814l.59-.211-.43-.846-1.101.395v26.641L14.438 40l14.526-7.206V6.152l-1.1-.395-.431.846Z" fill="#243B2E"></path><path d="m3.205 8.409.269.528a24.587 24.587 0 0 1 22.025 0l.27-.528a25.267 25.267 0 0 0-22.564 0Z" fill="#7F7559"></path><path d="M.948 4.058a32.214 32.214 0 0 1 4.666-1.874A32.027 32.027 0 0 0 .97 4.102l-.022-.044Zm.139.274a31.856 31.856 0 0 1 4.618-1.855 31.86 31.86 0 0 0-4.596 1.899l-.022-.044Zm.14.274a31.522 31.522 0 0 1 4.57-1.835A31.523 31.523 0 0 0 1.249 4.65l-.022-.044Zm.139.274a31.19 31.19 0 0 1 4.522-1.816 31.194 31.194 0 0 0-4.5 1.86l-.022-.044Zm.14.274A30.858 30.858 0 0 1 5.98 3.358a30.864 30.864 0 0 0-4.452 1.84l-.022-.044Zm.139.274A30.53 30.53 0 0 1 6.071 3.65a30.532 30.532 0 0 0-4.403 1.82l-.023-.043Zm.14.274c1.416-.7 2.87-1.284 4.378-1.757a30.373 30.373 0 0 0-4.356 1.8l-.022-.043Zm.14.274a30.038 30.038 0 0 1 4.33-1.738A30.036 30.036 0 0 0 1.946 6.02l-.022-.044Zm.139.274a29.7 29.7 0 0 1 4.282-1.718 29.703 29.703 0 0 0-4.26 1.762l-.022-.044Zm.14.274a29.368 29.368 0 0 1 4.233-1.699 29.374 29.374 0 0 0-4.211 1.743l-.022-.044Zm.139.274a29.032 29.032 0 0 1 4.186-1.68 29.036 29.036 0 0 0-4.163 1.723l-.023-.043Zm.14.274a28.697 28.697 0 0 1 4.138-1.66 28.704 28.704 0 0 0-4.116 1.703l-.022-.043Zm.139.273a28.362 28.362 0 0 1 4.09-1.64A28.369 28.369 0 0 0 2.645 7.39l-.023-.044Zm.14.275A28.22 28.22 0 0 1 6.804 6a28.225 28.225 0 0 0-4.02 1.663l-.022-.044Zm23.426.043A28.216 28.216 0 0 0 22.168 6c1.392.437 2.735.975 4.042 1.62l-.022.044Zm.14-.273a28.362 28.362 0 0 0-4.067-1.684c1.408.441 2.766.986 4.09 1.64l-.023.043Zm.139-.275a28.699 28.699 0 0 0-4.115-1.703 28.69 28.69 0 0 1 4.138 1.66l-.023.043Zm.14-.274a29.036 29.036 0 0 0-4.163-1.722 29.025 29.025 0 0 1 4.185 1.679l-.022.043Zm.14-.273a29.377 29.377 0 0 0-4.212-1.743 29.361 29.361 0 0 1 4.234 1.699.361.361 0 0 0-.022.044Zm.139-.274a29.696 29.696 0 0 0-4.26-1.762 29.697 29.697 0 0 1 4.282 1.718l-.022.044Zm.14-.274a30.033 30.033 0 0 0-4.308-1.782 30.033 30.033 0 0 1 4.33 1.738l-.022.044Zm.139-.274a30.368 30.368 0 0 0-4.355-1.801 30.364 30.364 0 0 1 4.378 1.757l-.023.044Zm.14-.274a30.532 30.532 0 0 0-4.404-1.82 30.526 30.526 0 0 1 4.426 1.776l-.022.044Zm.139-.274a30.863 30.863 0 0 0-4.451-1.84c1.54.483 3.027 1.08 4.474 1.796l-.023.044Zm.14-.274a31.203 31.203 0 0 0-4.5-1.86 31.189 31.189 0 0 1 4.522 1.816l-.022.044Zm.14-.274a31.523 31.523 0 0 0-4.548-1.88 31.518 31.518 0 0 1 4.57 1.836l-.022.044Zm.139-.274a31.859 31.859 0 0 0-4.595-1.899 31.855 31.855 0 0 1 4.618 1.855l-.023.044Zm.14-.274a32.194 32.194 0 0 0-4.644-1.918 32.18 32.18 0 0 1 4.666 1.874l-.022.044Z" fill="#3B9563"></path><path fill-rule="evenodd" clip-rule="evenodd" d="M11.705 3.435a1.573 1.573 0 0 1-.141-.587 1.568 1.568 0 0 1 .076-.598 1.353 1.353 0 0 1 .74-.81c.178-.08.378-.127.598-.14.223-.012.427.013.612.074s.349.154.49.276c.142.123.253.273.336.449.082.176.13.371.141.586a1.56 1.56 0 0 1-.077.598 1.338 1.338 0 0 1-.284.482 1.43 1.43 0 0 1-.457.329c-.178.08-.378.127-.6.14a1.657 1.657 0 0 1-.61-.074 1.352 1.352 0 0 1-.823-.725h-.001Zm2.18-.713a.87.87 0 0 0-.13-.43.784.784 0 0 0-.306-.278.837.837 0 0 0-.437-.085.834.834 0 0 0-.419.132.795.795 0 0 0-.278.31.856.856 0 0 0-.082.44.859.859 0 0 0 .13.428.788.788 0 0 0 .31.28.835.835 0 0 0 .431.086.837.837 0 0 0 .425-.133.78.78 0 0 0 .274-.311.872.872 0 0 0 .081-.44Zm-3.395-.33.031-.007-.143-.79a.481.481 0 0 1-.233.06c-.04 0-.086 0-.14-.002-.067-.003-.138 0-.216.009a2.107 2.107 0 0 0-.133.02 1.808 1.808 0 0 0-.791.33 1.352 1.352 0 0 0-.454.605 1.48 1.48 0 0 0-.056.797c.038.209.108.395.212.558a1.363 1.363 0 0 0 .91.618c.19.038.394.037.608-.002a1.47 1.47 0 0 0 .699-.307c.182-.154.31-.346.383-.576a1.56 1.56 0 0 0 .034-.759.453.453 0 0 1-.006-.148.291.291 0 0 1 .04-.112l-.005-.032-1.23.224a2.292 2.292 0 0 1-.2.028 1.282 1.282 0 0 1-.171.006l.125.69.032-.005a.327.327 0 0 1 .135-.129.837.837 0 0 1 .265-.087l.39-.07a.547.547 0 0 1-.041.265.621.621 0 0 1-.21.257.828.828 0 0 1-.347.143.85.85 0 0 1-.442-.028.751.751 0 0 1-.34-.242.895.895 0 0 1-.182-.412.836.836 0 0 1 .037-.464.794.794 0 0 1 .274-.351c.128-.094.286-.158.474-.193l.026-.004.034-.006a1.54 1.54 0 0 1 .152-.014.871.871 0 0 1 .158.008l.012.002c.006 0 .012.002.017.003a.581.581 0 0 1 .245.086l.006.004.012.007.011.007.008.005.01.006v.001Zm-5.102 2.54a1.572 1.572 0 0 1-.282-.533 1.567 1.567 0 0 1-.073-.599 1.354 1.354 0 0 1 .516-.967 1.65 1.65 0 0 1 .545-.284c.213-.066.417-.093.612-.08.194.014.375.063.543.147.167.084.312.201.436.351.123.15.217.328.281.534.065.205.09.404.074.598a1.336 1.336 0 0 1-.157.538c-.089.164-.21.308-.362.43a1.65 1.65 0 0 1-.547.284c-.21.067-.413.093-.609.08a1.35 1.35 0 0 1-.977-.499Zm1.936-1.23a.87.87 0 0 0-.231-.384.782.782 0 0 0-.365-.194.835.835 0 0 0-.445.026.828.828 0 0 0-.373.231.795.795 0 0 0-.193.37.857.857 0 0 0 .028.447c.05.157.127.284.232.382a.791.791 0 0 0 .37.195.836.836 0 0 0 .439-.024.838.838 0 0 0 .38-.233.778.778 0 0 0 .187-.37.874.874 0 0 0-.03-.445Zm-2.535 1.72-.686.295-.672-1.564a1.474 1.474 0 0 1-.062-.167.607.607 0 0 1-.024-.125.301.301 0 0 1 .035-.182l-.012-.03-.838.36.013.03c.05.016.1.053.148.11.048.057.097.143.147.26l.714 1.66a.96.96 0 0 1 .083.287.359.359 0 0 1-.026.184l.013.03 1.53-.658a2.82 2.82 0 0 1 .176-.069.809.809 0 0 1 .16-.04L5.19 5.11l-.033.014a.292.292 0 0 1-.106.151 1.078 1.078 0 0 1-.262.148Zm10.25-3.891c.018.072.026.17.022.297l-.057 1.807a1.066 1.066 0 0 1-.042.295.332.332 0 0 1-.098.156v.033l.89.028.001-.032a.32.32 0 0 1-.085-.162 1.136 1.136 0 0 1-.021-.298l.057-1.806c.004-.127.018-.225.04-.296a.51.51 0 0 1 .032-.078l.008-.013a.252.252 0 0 1 .056-.065v-.033l-.89-.028-.002.033c.04.036.069.09.088.162Zm1.75 2.2a.969.969 0 0 0 .006.303.3.3 0 0 0 .089.165l-.003.032-.907-.092.003-.032c.043-.03.08-.08.108-.149a1.03 1.03 0 0 0 .062-.292l.182-1.798c.01-.089.01-.165.005-.228a.54.54 0 0 0-.042-.163.274.274 0 0 0-.05-.076l.004-.032 1.055.107c.356.036.625.155.808.356.182.2.257.46.225.778a1.042 1.042 0 0 1-.192.53.911.911 0 0 1-.427.312 1.384 1.384 0 0 1-.62.063l-.281-.028-.025.244Zm.335-.785-.253-.025.092-.912.253.026c.166.017.288.069.366.155.077.086.109.204.093.354-.014.147-.069.255-.162.324-.094.069-.224.095-.39.078Zm2.432-.771a2.84 2.84 0 0 0-.382.49l-.425.67c-.077.126-.146.22-.207.285a.477.477 0 0 1-.17.125.328.328 0 0 1-.287-.033.29.29 0 0 1-.088-.09l-.032-.006-.125.69c.02.01.044.02.07.029l.016.006.012.004.016.005a.486.486 0 0 0 .023.007l.019.006a1.264 1.264 0 0 0 .484.037.774.774 0 0 0 .31-.116 1.37 1.37 0 0 0 .28-.249c.093-.105.187-.233.283-.385l.424-.67c.076-.12.145-.211.205-.274a.577.577 0 0 1 .165-.128.259.259 0 0 1 .094-.025.197.197 0 0 1 .082.012l.025.01a.268.268 0 0 1 .111.099l.032.005.13-.723a.338.338 0 0 1-.132-.008l-.01-.003a.924.924 0 0 0-.545-.008.941.941 0 0 0-.379.239v-.001Zm1.396.19a.676.676 0 0 0 .003-.155l-.002-.012-.002-.008a.265.265 0 0 0-.04-.103l.01-.03.854.239-.008.03a.336.336 0 0 0-.127.131 1.147 1.147 0 0 0-.11.277l-.338 1.208c-.043.156-.043.283 0 .381.044.1.13.167.26.203.13.037.239.024.329-.038.09-.061.157-.17.2-.325l.339-1.208c.033-.122.05-.22.05-.293a.318.318 0 0 0-.044-.178l.009-.031.854.239-.008.031a.321.321 0 0 0-.13.129 1.152 1.152 0 0 0-.11.277l-.35 1.251c-.062.22-.154.397-.275.531a.809.809 0 0 1-.442.255 1.24 1.24 0 0 1-.59-.037 1.233 1.233 0 0 1-.521-.274.81.81 0 0 1-.246-.448 1.299 1.299 0 0 1 .041-.596l.35-1.25c.022-.074.036-.14.043-.196h.001Zm2.701.689a1.12 1.12 0 0 1-.085.305l-.667 1.645a1.07 1.07 0 0 1-.14.262.332.332 0 0 1-.147.113l-.012.03.819.332.012-.03a.32.32 0 0 1-.024-.181c.008-.074.036-.17.083-.286l.445-1.096.436.878.015.006.925-.35-.452 1.116c-.024.059-.047.11-.07.154a.731.731 0 0 1-.07.11.321.321 0 0 1-.143.113l-.013.03.819.332.012-.03a.33.33 0 0 1-.026-.182 1.07 1.07 0 0 1 .082-.287l.667-1.645c.025-.063.051-.118.078-.166a.75.75 0 0 1 .12-.16.447.447 0 0 1 .067-.052.234.234 0 0 1 .049-.022l.012-.03-.737-.299-.009.023a.25.25 0 0 1 .005.03v.039l-.003.017a.265.265 0 0 1-.04.101.376.376 0 0 1-.191.14l-.797.314-.386-.81a.345.345 0 0 1-.033-.22.238.238 0 0 1 .11-.154l.01-.022-.74-.3-.013.03c.03.049.04.116.032.2Z" fill="#E2DAC4"></path><path fill-rule="evenodd" clip-rule="evenodd" d="M13.803 3.16a.87.87 0 0 0 .08-.439.869.869 0 0 0-.128-.429.782.782 0 0 0-.306-.278.838.838 0 0 0-.437-.085.832.832 0 0 0-.419.132.795.795 0 0 0-.278.31.859.859 0 0 0-.083.44.858.858 0 0 0 .13.428.791.791 0 0 0 .31.28.836.836 0 0 0 .432.086.837.837 0 0 0 .425-.133.78.78 0 0 0 .274-.312Zm-.708.288a.68.68 0 0 1-.35-.069.63.63 0 0 1-.25-.225.713.713 0 0 1-.106-.35.706.706 0 0 1 .067-.363.633.633 0 0 1 .224-.25.67.67 0 0 1 .391-.107c.115 0 .216.023.307.07a.623.623 0 0 1 .246.223.718.718 0 0 1 .103.353.716.716 0 0 1-.065.361.617.617 0 0 1-.22.25.681.681 0 0 1-.347.107Z" fill="#8B7C58"></path><path fill-rule="evenodd" clip-rule="evenodd" d="M14.183 1.532c.157.137.284.305.374.5.091.194.144.41.156.644.013.234-.015.456-.085.657a1.492 1.492 0 0 1-.317.538c-.14.152-.311.275-.507.364a1.811 1.811 0 0 1-.772.157 1.77 1.77 0 0 1-.553-.084 1.513 1.513 0 0 1-.917-.807 1.738 1.738 0 0 1-.155-.644 1.736 1.736 0 0 1 .085-.657 1.518 1.518 0 0 1 .823-.903c.196-.089.416-.14.655-.153.241-.014.467.014.67.081s.386.17.543.307Zm.012 2.233c.128-.137.222-.298.285-.482.063-.184.088-.384.077-.598a1.579 1.579 0 0 0-.142-.587 1.339 1.339 0 0 0-.335-.448 1.416 1.416 0 0 0-.49-.276 1.65 1.65 0 0 0-.612-.074c-.22.012-.42.059-.599.14a1.353 1.353 0 0 0-.74.81 1.568 1.568 0 0 0-.076.598c.012.215.059.41.141.586a1.347 1.347 0 0 0 .824.725c.186.061.39.086.61.074a1.65 1.65 0 0 0 .6-.14c.178-.081.33-.19.457-.328Zm-6.871-.062a.893.893 0 0 1 .03.446.778.778 0 0 1-.19.37.838.838 0 0 1-.378.233.834.834 0 0 1-.439.024.791.791 0 0 1-.37-.195.861.861 0 0 1-.232-.382.857.857 0 0 1-.028-.448.795.795 0 0 1 .193-.369.826.826 0 0 1 .373-.231.835.835 0 0 1 .444-.026c.14.032.262.097.366.194.104.097.18.225.23.384Zm-.943.92a.678.678 0 0 0 .358-.02.685.685 0 0 0 .31-.19.619.619 0 0 0 .15-.296.724.724 0 0 0-.025-.367.72.72 0 0 0-.188-.316.621.621 0 0 0-.43-.171.754.754 0 0 0-.226.037.671.671 0 0 0-.305.188.633.633 0 0 0-.155.298.697.697 0 0 0 .025.366.71.71 0 0 0 .19.314.63.63 0 0 0 .296.157Z" fill="#8B7C58"></path><path fill-rule="evenodd" clip-rule="evenodd" d="M7.32 2.477c.186.094.35.226.486.392.135.165.239.363.31.586.07.223.097.445.08.658a1.499 1.499 0 0 1-.175.6 1.575 1.575 0 0 1-.402.478 1.808 1.808 0 0 1-.598.311 1.873 1.873 0 0 1-.667.087 1.553 1.553 0 0 1-.603-.164 1.487 1.487 0 0 1-.377-.285l.339.789-.205.028a.66.66 0 0 0-.13.033c-.053.018-.108.04-.164.064l-1.674.72-.103-.24.03-.064a.21.21 0 0 0 .012-.104.816.816 0 0 0-.072-.237l-.714-1.66a.911.911 0 0 0-.123-.221c-.037-.044-.063-.057-.075-.061l-.069-.022-.102-.24 1.126-.484.106.249-.042.069a.155.155 0 0 0-.013.088.449.449 0 0 0 .019.093c.013.045.031.094.055.15l.61 1.42.542-.234a.945.945 0 0 0 .223-.124c.043-.035.052-.059.054-.067l.019-.076.178-.077a1.763 1.763 0 0 1-.324-1.143A1.515 1.515 0 0 1 5.45 2.71c.168-.134.368-.239.596-.31a1.8 1.8 0 0 1 .67-.087c.214.015.417.07.602.163ZM5.326 5.842a.787.787 0 0 1 .16-.04l-.298-.695-.033.015a.293.293 0 0 1-.106.15 1.093 1.093 0 0 1-.261.148l-.686.295-.673-1.564a1.453 1.453 0 0 1-.061-.167.602.602 0 0 1-.025-.125.301.301 0 0 1 .036-.182l-.013-.03-.838.36.013.03c.051.017.1.053.149.11.048.057.097.144.146.26l.714 1.66a.96.96 0 0 1 .084.287.358.358 0 0 1-.026.185l.013.03 1.53-.66c.06-.024.118-.047.175-.067Zm2.194-.774a1.41 1.41 0 0 0 .362-.43c.09-.165.142-.345.157-.538a1.568 1.568 0 0 0-.073-.599 1.575 1.575 0 0 0-.282-.533 1.337 1.337 0 0 0-.436-.352 1.414 1.414 0 0 0-.543-.146 1.654 1.654 0 0 0-.611.08 1.65 1.65 0 0 0-.545.283 1.35 1.35 0 0 0-.517.968c-.015.194.009.393.074.599.064.205.158.383.281.533a1.35 1.35 0 0 0 .977.499c.196.013.399-.014.61-.08.212-.067.395-.161.546-.284Zm3.85-2.299.032-.052-.045-.245-1.385.251a2.81 2.81 0 0 1-.187.027 1.165 1.165 0 0 1-.15.006l-.196-.008.19 1.037.262-.047.035-.07c.006-.011.023-.035.073-.064a.686.686 0 0 1 .215-.068l.181-.033-.001.003a.466.466 0 0 1-.162.201.677.677 0 0 1-.282.115.696.696 0 0 1-.362-.022.591.591 0 0 1-.271-.192.747.747 0 0 1-.149-.341.634.634 0 0 1 .25-.661 1.01 1.01 0 0 1 .431-.169l.032-.005.136-.013a.744.744 0 0 1 .093.002l.068.01a.434.434 0 0 1 .122.034l.065.033.03.017.061.041.248-.045-.21-1.158-.191.104a.324.324 0 0 1-.163.04 1.877 1.877 0 0 1-.128-.001 1.608 1.608 0 0 0-.384.03 1.969 1.969 0 0 0-.858.36 1.52 1.52 0 0 0-.505.675c-.1.267-.122.563-.064.88.042.229.12.435.234.615a1.533 1.533 0 0 0 1.013.688c.103.02.21.03.32.03.112 0 .228-.01.346-.032.309-.056.568-.17.771-.341.205-.172.35-.39.432-.649a1.72 1.72 0 0 0 .04-.834.307.307 0 0 1-.006-.096.137.137 0 0 1 .018-.053Zm-.169.177c.05.276.039.528-.034.76-.073.23-.2.422-.383.575a1.474 1.474 0 0 1-.7.308c-.214.039-.417.04-.608.002a1.363 1.363 0 0 1-.91-.618 1.546 1.546 0 0 1-.212-.558 1.482 1.482 0 0 1 .056-.798c.09-.24.242-.442.454-.605.213-.163.476-.273.791-.33a1.9 1.9 0 0 1 .134-.02c.078-.009.15-.011.216-.009.054.003.1.003.14.002a.483.483 0 0 0 .233-.059l.143.79-.032.006-.01-.007-.007-.005-.012-.007-.012-.007-.006-.004a.58.58 0 0 0-.262-.09h-.012a.873.873 0 0 0-.158-.008l-.001-.001-.037.002a2.334 2.334 0 0 0-.114.012l-.03.005h-.004l-.026.005a1.121 1.121 0 0 0-.474.193.794.794 0 0 0-.274.351.836.836 0 0 0-.037.464c.03.162.09.299.182.412a.75.75 0 0 0 .34.242.85.85 0 0 0 .442.028.827.827 0 0 0 .348-.143.623.623 0 0 0 .21-.257.548.548 0 0 0 .04-.266l-.39.071a.83.83 0 0 0-.265.087.327.327 0 0 0-.135.13l-.031.005-.126-.69c.05.001.107 0 .171-.007.065-.007.131-.016.2-.028l1.23-.224.007.032a.29.29 0 0 0-.042.112.45.45 0 0 0 .007.147Zm6.474-.403c-.014.147-.069.255-.162.324-.094.07-.223.095-.39.079l-.252-.026.092-.911.253.025c.166.017.287.069.365.155.078.086.11.204.094.354ZM17.2 2.19l-.096-.01-.061.6.097.01c.125.012.22-.004.28-.049.056-.042.09-.112.1-.214.01-.104-.008-.18-.055-.233-.05-.056-.14-.091-.265-.104Z" fill="#8B7C58"></path><path fill-rule="evenodd" clip-rule="evenodd" d="m23.093 3.17-.35 1.251-.003.001a1.452 1.452 0 0 1-.309.594.966.966 0 0 1-.526.303 1.148 1.148 0 0 1-.235.024 1.6 1.6 0 0 1-.43-.064 1.393 1.393 0 0 1-.586-.31.967.967 0 0 1-.292-.532 1.46 1.46 0 0 1 .045-.668l.35-1.251c.018-.065.031-.123.038-.173a.598.598 0 0 0 .003-.113.152.152 0 0 0-.019-.058l-.03-.047-.133.734-.256-.047-.036-.061a.12.12 0 0 0-.029-.028l-.036-.015h-.003a.118.118 0 0 0-.046.01.423.423 0 0 0-.116.094 1.66 1.66 0 0 0-.186.25l-.425.669c-.1.159-.2.295-.297.406a1.535 1.535 0 0 1-.313.276.936.936 0 0 1-.537.151 1.458 1.458 0 0 1-.336-.04l-.13-.039a1.205 1.205 0 0 1-.096-.038l-.111-.05.148-.823a.14.14 0 0 0-.02.011c-.007.004-.015.009-.023.012a1.54 1.54 0 0 1-.69.072l-.125-.013-.01.089a.82.82 0 0 0 .003.252c.01.039.023.067.04.081l.06.054-.027.269-1.115-.113v.018l-1.205-.038.01-.261.055-.045c.01-.008.029-.03.048-.085a.913.913 0 0 0 .033-.25l.058-1.806a.915.915 0 0 0-.018-.252c-.015-.056-.033-.08-.043-.088l-.052-.048.007-.261 1.205.038-.007.26-.056.046a.109.109 0 0 0-.02.026l-.026.058a.961.961 0 0 0-.032.251l-.057 1.807a.967.967 0 0 0 .016.254c.013.053.03.075.039.084l.025-.019c.011-.007.032-.028.055-.081a.923.923 0 0 0 .05-.248l.183-1.798a1.12 1.12 0 0 0 .004-.197.335.335 0 0 0-.008-.05l-.008-.032a.268.268 0 0 0-.012-.032.121.121 0 0 0-.021-.033l-.05-.052.028-.26 1.21.123c.395.04.7.177.909.406.213.234.302.537.265.9a1.199 1.199 0 0 1-.222.609 1.03 1.03 0 0 1-.247.231l.072.014.036.057a.132.132 0 0 0 .041.042c.018.012.04.02.064.024a.16.16 0 0 0 .085-.006.317.317 0 0 0 .11-.085c.053-.056.116-.143.188-.26l.425-.67a3.01 3.01 0 0 1 .404-.52 1.1 1.1 0 0 1 .443-.276 1.085 1.085 0 0 1 .62.003l.037.01.216-.032.015.216-.004.023.04-.143 1.156.324-.068.248-.061.031c-.01.005-.033.021-.065.073a.97.97 0 0 0-.092.238l-.338 1.208c-.034.118-.036.211-.008.275.016.035.049.084.159.115.112.031.166.006.198-.016.058-.04.104-.12.137-.238l.339-1.208a.974.974 0 0 0 .045-.251c0-.056-.012-.082-.019-.092l-.039-.06.07-.251 1.156.324-.069.251-.065.031a.18.18 0 0 0-.064.069.974.974 0 0 0-.091.237Zm-7.33-1.663a.412.412 0 0 1 .023-.046.25.25 0 0 1 .055-.065l.001-.032-.89-.029-.002.033c.04.036.069.09.088.162.02.072.027.17.023.297l-.058 1.806a1.073 1.073 0 0 1-.041.296.332.332 0 0 1-.098.156l-.001.032.891.029.001-.032a.32.32 0 0 1-.086-.162 1.144 1.144 0 0 1-.02-.298l.057-1.806c.004-.127.017-.225.04-.296a.48.48 0 0 1 .016-.045Zm1.331 2.007c.236.024.443.003.621-.063a.91.91 0 0 0 .427-.312 1.04 1.04 0 0 0 .19-.53c.033-.318-.042-.578-.224-.779-.183-.2-.452-.319-.808-.355l-1.055-.107-.004.032c.02.02.037.046.05.076a.464.464 0 0 1 .042.163c.006.063.004.139-.005.228l-.182 1.798a1.061 1.061 0 0 1-.062.292.333.333 0 0 1-.108.15l-.004.031.908.092.003-.032a.3.3 0 0 1-.089-.165.97.97 0 0 1-.005-.303l.024-.244.281.028Zm3.366-.843.032.006.13-.723a.34.34 0 0 1-.133-.009l-.01-.002a.744.744 0 0 0-.105-.026.923.923 0 0 0-.44.017.945.945 0 0 0-.379.24 2.829 2.829 0 0 0-.381.49l-.424.67c-.078.125-.147.22-.208.284a.467.467 0 0 1-.17.125.313.313 0 0 1-.166.013.326.326 0 0 1-.12-.046.284.284 0 0 1-.09-.09l-.031-.006-.125.691c.02.01.043.018.07.028l.016.006.012.004.016.005a.43.43 0 0 0 .042.013 1.14 1.14 0 0 0 .113.025c.135.025.258.029.37.012a.77.77 0 0 0 .31-.116c.095-.06.188-.144.281-.249.093-.104.187-.233.283-.385l.424-.67c.077-.12.145-.211.206-.274a.58.58 0 0 1 .164-.128.259.259 0 0 1 .094-.024.196.196 0 0 1 .082.011.221.221 0 0 1 .07.037c.03.023.052.047.067.071Zm.824 2.456c.22.062.417.075.59.038a.808.808 0 0 0 .443-.255c.121-.134.212-.31.274-.53l.35-1.252c.035-.122.071-.214.11-.277a.323.323 0 0 1 .13-.13l.01-.03-.856-.24-.008.032c.03.044.044.103.044.177s-.017.172-.05.294l-.339 1.208c-.043.156-.11.264-.2.325-.09.062-.2.074-.33.038-.129-.036-.215-.104-.259-.203-.044-.098-.044-.226 0-.38l.339-1.209a1.11 1.11 0 0 1 .109-.277.337.337 0 0 1 .126-.13l.009-.031-.855-.24-.009.031c.018.026.03.057.038.094l.001.006v.003l.002.008V2.2l.002.01a.676.676 0 0 1-.002.155 1.434 1.434 0 0 1-.043.195l-.35 1.25a1.3 1.3 0 0 0-.042.597.808.808 0 0 0 .245.448c.13.121.303.212.52.273Zm4.483-1.609-.154-.036-.06.145-.017.075.01.048a.097.097 0 0 1-.016.04.25.25 0 0 1-.118.08l-.661.26-.32-.676c-.023-.05-.031-.09-.024-.121a.082.082 0 0 1 .042-.056l.05-.049.08-.192-1.032-.418-.1.247.04.067c.005.01.016.038.01.106a.988.988 0 0 1-.074.261l-.667 1.646a.899.899 0 0 1-.118.223c-.036.045-.062.058-.074.062l-.068.023-.097.243 1.108.448.099-.24-.033-.065a.18.18 0 0 1-.008-.094.964.964 0 0 1 .073-.244l.313-.773.281.567.042.059.111.045.648-.245-.318.785a1.432 1.432 0 0 1-.064.139.618.618 0 0 1-.053.086c-.035.044-.06.058-.072.061l-.067.023-.1.242 1.11.45.1-.242-.034-.064c-.006-.012-.015-.04-.01-.096a.901.901 0 0 1 .072-.243l.666-1.645c.023-.056.046-.105.07-.147a.645.645 0 0 1 .092-.124.257.257 0 0 1 .025-.021l.028-.016.072-.022.1-.245-.883-.357Zm.666.474a.227.227 0 0 0-.078.04.578.578 0 0 0-.083.082.721.721 0 0 0-.075.112 1.462 1.462 0 0 0-.079.166l-.666 1.645a1.077 1.077 0 0 0-.082.287.333.333 0 0 0 .026.182l-.012.03-.819-.332.012-.03a.321.321 0 0 0 .144-.113.756.756 0 0 0 .07-.11c.023-.044.046-.095.07-.153l.452-1.117-.925.35-.015-.006-.436-.878-.445 1.096a1.156 1.156 0 0 0-.083.286.32.32 0 0 0 .024.182l-.012.03-.819-.332.012-.03a.33.33 0 0 0 .146-.113 1.08 1.08 0 0 0 .142-.263l.667-1.645a1.12 1.12 0 0 0 .084-.305.332.332 0 0 0-.032-.2l.013-.03.74.3-.01.022a.24.24 0 0 0-.11.154.35.35 0 0 0 .033.22l.386.81.797-.313a.378.378 0 0 0 .192-.14.263.263 0 0 0 .04-.101l.002-.017v-.042c0-.01-.002-.02-.004-.03l.009-.022.736.299-.012.029Z" fill="#8B7C58"></path><path d="m2.004 9.72.176.542h.571l-.462.336.177.543-.462-.335-.462.335.176-.543-.462-.336h.571l.177-.543Zm24.966 0 .176.542h.571l-.462.336.177.543-.462-.335-.462.335.176-.543-.462-.336h.571l.177-.543ZM2.004 27.27l.176.543h.571l-.462.336.177.543-.462-.336-.462.336.176-.543-.462-.336h.571l.177-.543Zm24.966 0 .176.543h.571l-.462.336.177.543-.462-.336-.462.336.176-.543-.462-.336h.571l.177-.543Zm1.053 2.267-.314.181a26.463 26.463 0 0 1-26.445.009l-.313-.18v.723a27.091 27.091 0 0 0 27.072-.009v-.724Z" fill="#7F7559"></path><circle cx="9.548" cy="35.301" r=".253" fill="#E2DAC4"></circle><circle cx="19.415" cy="35.301" r=".253" fill="#E2DAC4"></circle><path d="M10.704 35.78h.43a.25.25 0 0 0 .103-.018.135.135 0 0 0 .037-.027.11.11 0 0 0 .018-.025h.012v.222a.167.167 0 0 0-.029-.007.313.313 0 0 0-.026-.003 1.115 1.115 0 0 0-.064-.002h-.69v-.014a.103.103 0 0 0 .043-.054.267.267 0 0 0 .017-.107v-.847a.267.267 0 0 0-.018-.108.103.103 0 0 0-.043-.053v-.014h.68a.584.584 0 0 0 .12-.012v.222h-.014a.111.111 0 0 0-.055-.052.158.158 0 0 0-.036-.012.325.325 0 0 0-.065-.006h-.42v.31h.222c.022 0 .04 0 .055-.003a.125.125 0 0 0 .03-.008.098.098 0 0 0 .042-.032h.012v.226h-.012a.083.083 0 0 0-.042-.031.221.221 0 0 0-.085-.012h-.222v.466Zm1.199-.863h-.013a.103.103 0 0 0-.031-.028.15.15 0 0 0-.053-.026l-.009-.002a.244.244 0 0 0-.014-.003.191.191 0 0 0-.047-.005.214.214 0 0 0-.142.045.143.143 0 0 0-.054.115c0 .035.01.067.03.095.02.027.053.056.102.089l.09.058a.715.715 0 0 1 .125.105.38.38 0 0 1 .075.11c.016.04.024.083.024.13a.3.3 0 0 1-.106.238.444.444 0 0 1-.298.09.778.778 0 0 1-.103-.006.878.878 0 0 1-.083-.012v-.195h.012l.028.028.031.019.005.003a.155.155 0 0 0 .024.01.259.259 0 0 0 .092.016.267.267 0 0 0 .174-.052.173.173 0 0 0 .064-.138.187.187 0 0 0-.041-.12.31.31 0 0 0-.036-.04.703.703 0 0 0-.1-.076l-.088-.061a.602.602 0 0 1-.067-.05.3.3 0 0 1-.114-.24c0-.09.033-.162.1-.217a.42.42 0 0 1 .275-.083h.02l.037.004h.022l.004.001a.466.466 0 0 0 .036-.002.194.194 0 0 0 .029-.006v.206Zm.247-.054h.195v.892a.254.254 0 0 1-.015.1.105.105 0 0 1-.042.053v.012h.264v-.012a.115.115 0 0 1-.044-.052.285.285 0 0 1-.013-.1v-.893h.196a.23.23 0 0 1 .1.018.111.111 0 0 1 .056.052h.014v-.222a.583.583 0 0 1-.12.012h-.642a.617.617 0 0 1-.12-.012v.222h.014a.111.111 0 0 1 .054-.052.25.25 0 0 1 .102-.018Zm1.27-.013.002.046v.86a.255.255 0 0 1-.016.1.11.11 0 0 1-.04.052v.012h.259v-.012a.11.11 0 0 1-.04-.052.282.282 0 0 1-.014-.1v-.76l.404.395h.007l.405-.399v.763a.34.34 0 0 1-.007.073.144.144 0 0 1-.01.028.108.108 0 0 1-.039.052v.012h.258v-.012a.097.097 0 0 1-.034-.04.082.082 0 0 1-.003-.007l-.002-.005a.285.285 0 0 1-.014-.1v-.86a.37.37 0 0 1 .004-.06.19.19 0 0 1 .011-.044.117.117 0 0 1 .042-.057v-.012h-.229v.008a.07.07 0 0 1 .012.056.127.127 0 0 1-.04.066l-.354.354-.367-.36a.118.118 0 0 1-.037-.062.063.063 0 0 1 .014-.053v-.01h-.23v.013a.1.1 0 0 1 .044.057.214.214 0 0 1 .014.058Zm1.321-.023a.186.186 0 0 0-.01-.035.113.113 0 0 0-.043-.057v-.012h.229v.008a.061.061 0 0 0-.014.029.075.075 0 0 0 0 .025.117.117 0 0 0 .037.063l.367.36.354-.355.006-.006a.193.193 0 0 0 .023-.03c.006-.01.01-.02.011-.03a.07.07 0 0 0-.012-.056v-.008h.229v.012a.096.096 0 0 0-.026.027.166.166 0 0 0-.024.056.35.35 0 0 0-.007.078v.86c0 .043.004.077.014.1a.11.11 0 0 0 .04.052v.012h-.259v-.012a.108.108 0 0 0 .04-.052.255.255 0 0 0 .015-.1v-.764l-.404.399H15.3l-.404-.394v.758a.28.28 0 0 0 .014.1c.01.024.023.041.04.053v.012h-.259v-.012a.092.092 0 0 0 .022-.02l.002-.002.002-.004.004-.005a.138.138 0 0 0 .01-.021.255.255 0 0 0 .016-.1v-.86a.435.435 0 0 0-.006-.07Zm2.266 1.056a.295.295 0 0 1-.042-.048l-.369-.545.326-.486a.181.181 0 0 1 .043-.045.2.2 0 0 1 .038-.024v-.012h-.272v.012c.012.005.02.014.026.03.007.013.003.032-.012.055l-.244.367-.25-.37c-.014-.022-.018-.04-.01-.054a.054.054 0 0 1 .027-.028v-.012h-.285v.012c.003 0 .005.002.008.003a.196.196 0 0 1 .025.015l.006.005a.157.157 0 0 1 .04.041l.335.495-.36.529a.443.443 0 0 1-.048.057l-.002.002a.34.34 0 0 1-.038.026v.012h.277v-.012a.067.067 0 0 1-.03-.037.037.037 0 0 1-.001-.013.06.06 0 0 1 .002-.014.145.145 0 0 1 .02-.04l.275-.402.28.409c.014.023.02.042.015.059a.058.058 0 0 1-.028.038v.012h.286v-.012a.146.146 0 0 1-.038-.025Zm.127-.995a.506.506 0 0 0-.003-.054.19.19 0 0 0-.01-.047.105.105 0 0 0-.042-.052v-.012h.258v.012a.108.108 0 0 0-.04.052.187.187 0 0 0-.01.043.416.416 0 0 0-.003.058v.867c0 .044.004.078.013.1.01.024.023.041.04.053v.012h-.258v-.012a.096.096 0 0 0 .034-.037.13.13 0 0 0 .004-.008l.002-.004.001-.003a.285.285 0 0 0 .014-.1v-.868Zm1.272.97.024.026c.014.011.027.02.038.024v.012h-.286v-.012a.058.058 0 0 0 .028-.038.041.041 0 0 0 .002-.011v-.008l-.001-.002v-.002a.12.12 0 0 0-.016-.036l-.28-.41-.274.403a.162.162 0 0 0-.02.036.048.048 0 0 0 0 .031c.003.01.007.018.013.024.005.005.01.01.016.013v.012h-.278v-.012a.23.23 0 0 0 .015-.01l.01-.006a.315.315 0 0 0 .064-.069l.36-.53-.336-.494a.194.194 0 0 0-.017-.022.126.126 0 0 0-.023-.02.17.17 0 0 0-.038-.022v-.012h.284v.012a.054.054 0 0 0-.027.028c-.007.014-.004.032.01.053l.25.37.244-.366a.091.091 0 0 0 .015-.035v-.012a.027.027 0 0 0-.003-.009.045.045 0 0 0-.026-.029v-.012h.273v.012a.2.2 0 0 0-.038.024.183.183 0 0 0-.044.045l-.325.486.369.545.008.011.005.007.004.005Zm-5.578.048a.107.107 0 0 1-.03-.076.106.106 0 0 1 .03-.075.106.106 0 0 1 .078-.031c.03 0 .055.01.074.031.01.01.019.022.024.034a.109.109 0 0 1 0 .08.104.104 0 0 1-.024.037.097.097 0 0 1-.025.02.103.103 0 0 1-.06.01.22.22 0 0 1-.015-.001.126.126 0 0 1-.028-.01.106.106 0 0 1-.024-.019Z" fill="#E2DAC4"></path><path d="m7.216 10.789-2.16-2.574c.101-.042.203-.084.305-.124l2.067 2.462a3.634 3.634 0 0 0-.212.236Zm1.447-1.365L7.469 7.357l.31-.09L8.872 9.16a2.69 2.69 0 0 0-.197.248l-.012.016Zm1.607-1.378-.46-1.263.312-.059.422 1.161a.994.994 0 0 0-.275.162Zm2.024-.464-.2-1.132.314-.029.169.956c-.11.063-.198.14-.265.208l-.018-.003Zm2.058-.216V6.334h.314v.963c-.105.013-.21.036-.314.069Zm2.072.107.184-1.048c.105.01.21.019.314.03l-.197 1.116a.968.968 0 0 0-.301-.098Zm1.888.855.581-1.596.312.06-.633 1.74a8.678 8.678 0 0 0-.26-.204Zm1.539 1.342 1.38-2.392.31.09-1.447 2.508a13.16 13.16 0 0 1-.243-.207Zm1.367 1.326 2.427-2.892.305.125-2.565 3.057a2.429 2.429 0 0 0-.167-.29Zm3.162-3.28v.001l-.29-.144h.002l.289.143ZM.95 8.065v-.41l5.728 4.805a1.343 1.343 0 0 0 .123.513L.95 8.065Zm0 3.525v-.362L6.449 14.4c-.042.1-.075.201-.104.303L.951 11.59Zm0 2.879v-.334l4.898 1.783c-.058.09-.115.18-.166.273L.951 14.469Zm0 2.536v-.318l4.48.79a2.867 2.867 0 0 1-.105.3l-4.374-.772Zm0 2.388v-.313h3.946a2.003 2.003 0 0 0-.01.314H.951Zm0 2.394v-.319l4.298-.758c-.004.1-.006.208.002.319l-4.3.758Zm0 2.551v-.334L5.8 22.24c.016.12.031.225.045.317L.951 24.338Zm0 2.907v-.362l5.442-3.142.018.016.015.012-.059.35-5.415 3.126Zm.612 2.651L6.18 26.02a1.079 1.079 0 0 1-.068.186c-.083.177-.231.374-.388.583l-.046.061-3.823 3.208a27.139 27.139 0 0 1-.294-.162Zm2.696 1.314.802-.956.326.099-.824.982a26.738 26.738 0 0 1-.304-.125Zm2.616.937.701-1.215c.112.033.216.067.305.099l-.697 1.207-.31-.09Zm2.54.627.17-.463.33.01-.187.512a27.736 27.736 0 0 1-.313-.059Zm2.484.363.151-.855c.13-.008.242-.018.324-.029l-.161.913a27.437 27.437 0 0 1-.314-.03Zm15.535-3.261-5.436-4.56a7.921 7.921 0 0 0-.026.387l5.167 4.336c.099-.054.197-.108.294-.163Zm-2.688 1.315-.942-1.122-.34.083.978 1.165c.101-.041.203-.083.304-.126Zm-2.61.941-.863-1.495-.065.011-.263.047.882 1.529c.103-.03.206-.06.31-.092Zm-2.535.631-.597-1.638-.055.022-.019.087-.002.011a2.035 2.035 0 0 1-.091.337l.451 1.241.312-.06Zm-2.482.368-.139-.788c-.086.002-.175.003-.264.003h-.054l.144.815.313-.03Zm-2.452.131V32.23a3.194 3.194 0 0 1-.139-.022 1.116 1.116 0 0 1-.175-.047v1.102h.314Zm13.357-6.404v.362l-5.87-3.389a10.1 10.1 0 0 0 .024-.348l5.846 3.375Zm0-2.87v.334l-5.533-2.014a7.2 7.2 0 0 0 .012-.24l.002-.043.001-.045 5.518 2.008Zm0-2.528v.319l-4.959-.875c.01-.106.01-.214.005-.317l4.954.873Zm0-2.38v.314H23.36c.01-.11.011-.214.006-.314h4.657Zm0-2.386v.319l-4.995.88a7.07 7.07 0 0 1-.12-.297l5.115-.902Zm0-2.544v.335l-5.32 1.936a2.347 2.347 0 0 0-.15-.28l5.47-1.99Zm0-2.897v.362l-6.062 3.5-.038-.146a10.477 10.477 0 0 0-.043-.17l6.143-3.546Zm0-3.561v.41l-6.703 5.624-.019-.023a8.287 8.287 0 0 0-.047-.06 14.923 14.923 0 0 1 .153-.4l6.616-5.55Z" fill="#243B2E"></path><path d="M13.072 7.677c.51-.068.984.42 1.042.42.026 0 .277-.265.416-.315a1.21 1.21 0 0 1 .938.035c.048.022.179.205.208.21.04.006.49-.18.764-.14.287.041.4.308.556.35.332.09.436-.052.833.21.572.376 1.2.98 1.702 1.435.852.775 1.835 1.277 1.684 2.644-.028.252-.397 1.039-.382 1.155.006.041.425.549.487.665.213.402.233.81.381 1.156.168.39.628.809.73 1.26.04.18-.003.53.034.665.225.81.707 1.265.452 2.24-.022.085-.238.391-.243.421-.027.155.053.55 0 .805-.084.401-.497.697-.521.77-.04.12-.02.57-.07.77-.055.226-.191.45-.277.666 0 1.176-.397 2.742-.119 3.323.396.618.987.909 1.195 2.104l2.17.262.192.228c-.134.004-.177.142-.26.192-.282.168-2.615.686-3.126.806-.472.11-3.052.482-3.213.787-.152.29-.03.77-.573.928-.586.171-2.73.083-3.368-.035-.645-.12-.425-1.062-.556-1.12h-.972c-.092.494-.125 1.047-.73 1.155-.428.076-2.665.104-3.09.035-.602-.097-.556-.685-.747-.963-.223-.325-2.213-.71-2.691-.857-.39-.12-1.473-.431-1.771-.596-.145-.08-.268-.22-.226-.402.07-.303 1.268-.224 1.545-.298.13-.058.133-.585.191-.753.19-.546.74-1.043.973-1.54.24-.511.12-.951.173-1.506.02-.192.23-1.266.209-1.33-.007-.02-.263-.198-.313-.28a4.001 4.001 0 0 1-.243-.525c-.065-.203-.143-1.007-.173-1.05-.045-.063-.31-.11-.417-.42-.136-.395.013-.865-.07-1.156-.006-.023-.233-.25-.277-.385-.283-.865.33-1.537.486-2.276.056-.264-.013-.518.07-.805.094-.329.462-.746.59-1.05.127-.304.173-.722.312-1.05.098-.232.629-1.013.625-1.156-.002-.109-.316-.628-.347-.84-.194-1.338.85-1.882 1.684-2.644.174-.158.28-.405.486-.56.126-.094.372-.144.452-.21.21-.174.737-.8.938-.84.149-.03.518.04.625 0 .057-.022.098-.265.416-.315.213-.034.647.095.73.07.055-.017.201-.313.486-.35Z" fill="#243B2E"></path><path fill-rule="evenodd" clip-rule="evenodd" d="M14.079 8.307c-.244-.332-.623-.544-1.042-.49l.903 1.925a8.106 8.106 0 0 1-.29-.45c-.432-.7-.882-1.428-1.846-1.143a.577.577 0 0 0 .205.084c.13.036.236.065.108.196.558.41 1.546 1.228 1.84 1.856l.015.028c.029.055.066.126.003.164-.52-.797-1.94-2.187-2.952-1.995-.06.011-.282.105-.296.192 1.052.07 2.085.648 2.779 1.436.077.087.139.19.2.292.172.286.334.555.79.39.032-.011.112-.17.188-.32.057-.112.111-.219.141-.257.627-.79 1.81-1.481 2.813-1.576-.72-.62-1.882.403-2.413.928l-.015.015c-.28.277-.564.558-.715.93-.23.012.358-.806.4-.857.345-.43.875-.863 1.346-1.248.124-.101.244-.2.355-.293-.49-.312-1.094.05-1.423.455-.034.042-.101.161-.184.308-.214.38-.533.946-.667.865-.047-.028.216-.525.467-1 .224-.423.438-.828.418-.873-.38-.168-.667.066-.938.289a3.956 3.956 0 0 1-.19.149Zm.798-.175c.036.011.03.13-.034.105-.053-.02.023-.109.034-.105Zm1.32 0c.159.13.067.146-.075.17l-.029.005.104-.175Zm-.312.21-.903.98a2.47 2.47 0 0 1 .903-.98Zm-1.702 1.96c.159-.07.157.328.07.35-.134-.01-.145-.316-.07-.35Zm-.417-1.715c.088-.042.195.348.174.42-.105.058-.172-.354-.174-.42Zm.973-.175-.278.56c-.102-.049.194-.516.278-.56Zm-1.737.245.336.44a1.782 1.782 0 0 0-.082-.08c-.13-.122-.34-.319-.254-.36Zm.348.456a.072.072 0 0 0-.012-.015l.012.015Zm.855.197a3.198 3.198 0 0 1-.022-.127c-.028 0-.053.525.035.56.04-.145.013-.29-.013-.433Zm-.473-1.003c.104-.007.158.175.069.175-.021 0-.117-.15-.07-.175Zm.416 1.716c.062-.038.1.186.035.175l-.035-.175Zm.278-1.68c.043.064.014.144-.035.07-.017-.027-.004-.037.013-.05a.115.115 0 0 0 .022-.02Z" fill="#E4D6AF"></path><path d="M18.315 9.077c-.166-.302-.751-.28-1.041-.245-.668.082-1.772.793-2.206 1.313-.042.051-.587.787-.26.613.686-.989 1.955-1.946 3.212-1.733-1.135.037-2.318.63-2.778 1.715l.087.053c.574-1.117 1.788-1.632 2.986-1.716Zm-7.709 4.376L8.99 15.852l1.58-2.224-.781 1.523.364-.437c.068.072-.081.282-.161.395a2.22 2.22 0 0 0-.03.042c-.415.615-.976 1.184-1.542 1.758-.686.696-1.38 1.4-1.826 2.199-.369.66-.467 1.145-.504 1.908-.49-2.03.938-3.628 2.237-5.081.28-.314.554-.62.802-.924.09-.11.178-.235.267-.36.192-.274.39-.555.636-.725-.415.803-1.064 1.536-1.716 2.272-.89 1.005-1.786 2.016-2.104 3.225l-.006.02c-.017.056-.057.188.006.19.317-1.197 1.104-2.102 1.886-3 .245-.282.49-.562.718-.851.226-.284.435-.582.643-.88.356-.506.711-1.012 1.146-1.449Zm6.32 5.707c.859.567 1.408 1.911 1.233 2.923-.126.728-.78 1.112-.625.07l.07-.035.173.105c.01-.368-.097-.707-.206-1.048a9.172 9.172 0 0 1-.107-.352l-.034.28-.59-1.435.45.315-.52-.63c.286.057.47.37.631.644.058.099.113.191.168.266.005.006.01.016.017.027.027.047.064.11.087.008l-.747-1.138Zm-1.58 7.124-.017-1.697c-.33.32-.264.692-.196 1.07.058.32.116.643-.064.943-.03-.076-.038-.335-.046-.616-.012-.41-.026-.866-.11-.872-.22.316-.15.719-.082 1.111.03.178.06.353.064.517.003.188-.019.386-.04.586-.036.313-.071.632-.012.936.414-.682.733-1.526.816-2.328.005-.053.037-1.163-.08-1.233a.163.163 0 0 0 .045-.062c.022-.045-.018-.456-.052-.473-.124.081-.104.503-.024.54a.282.282 0 0 0-.063.108c-.028.069-.015.301-.002.553.013.256.028.53.002.672-.004.024-.062.294-.139.245Zm-3.757-6.447.006-.012a.514.514 0 0 1 .079-.057c.054-.035.109-.07.13-.135-.112.001-.145.068-.183.143a1.126 1.126 0 0 1-.026.05l-.018.017c-.142.136-.257.244-.364.42l-.416 1.085c.054-.834.596-1.518 1.146-2.1-.645.362-.925.973-1.198 1.628.114-.634.533-1.273 1.059-1.664-.125-.105-.43.186-.521.28-.66.681-1.08 2.266-.59 3.117.428.744.648-.365.295-.648l-.174.245c.034-.117.067-.237.1-.357.189-.687.387-1.409.82-1.971l-.225.157c-.03-.014.053-.154.08-.198Zm4.938 5.047a4.48 4.48 0 0 0-.122-1.173l-.208 1.681-.017-1.488c-.073.01-.168.343-.174.385-.02.154-.012.316-.003.478a2.3 2.3 0 0 1-.015.555c-.034 0-.059-.36-.08-.669a3.827 3.827 0 0 0-.041-.434c-.014-.037-.11-.126-.139-.035l.226 3.133c.023.015.278-.424.295-.472.113-.328.263-1.582.278-1.96Zm-4.879 2.433c-.83-1.249-.534-2.883-.278-4.27.164.306.103.664.043 1.018-.033.195-.066.39-.06.574.078-.108.096-.256.114-.403.013-.104.025-.208.06-.297.012-.033.194-.393.242-.245-.236 1.204-.212 2.408-.121 3.623Zm1.314-2.104c.012-.384.024-.769-.03-1.152-.019.13-.042.266-.065.406-.097.585-.207 1.244-.16 1.783.06.68.451 1.461.787 2.13.072.141.14.278.203.408l-.06-.31c-.252-1.316-.495-2.58-.479-3.944l-.069 1.996c-.07.067-.102-.194-.104-.21-.046-.368-.035-.738-.023-1.107Z" fill="#E4D6AF"></path><path d="M18.489 22.1c.753-1.225.006-3.088-1.215-3.71l.99 1.383-.07.035c-.21-.408-.553-.94-1.007-1.086.612.634 1.115 1.483 1.18 2.381l.14-.245-.018 1.243Zm-9.006-1.55c.1-.234.335-.782.116-.725-.07.019-.586 1.095-.643 1.243-.396 1.045-.526 2.182-.225 3.273.134-1.25.366-2.486.712-3.693a1.46 1.46 0 0 1 .04-.098Zm7.061-.025c.26.16.314.448.368.728.029.152.058.302.118.428.039-.022-.004-.205-.042-.368-.025-.108-.048-.207-.044-.245 0-.003.008-.01.019-.02.044-.039.144-.127.085-.26.46.29-.1 2.574-.365 2.573-.2 0-.104-.8-.047-1.263.016-.139.03-.247.03-.295.113.126.08.358.053.552a2.634 2.634 0 0 0-.018.148c.105-.087.104-.356.104-.498v-.027c0-.43-.115-.878-.222-1.3l-.039-.153Zm-4.549.035-.156.823c-.105.075-.102.227-.099.387.002.098.004.2-.019.287l.36-1.024a3.88 3.88 0 0 1-.088.515c-.076.345-.152.69-.033 1.043l.07-.7c.076-.015.128 1.498.035 1.54-.8-.751-.702-2.008-.07-2.87Zm7.535-3.71c.84.69 2.797 2.503 2.588 3.693-.005.026-.06.193-.087.192-.154-1.217-.918-2.069-1.683-2.922-.283-.315-.565-.63-.817-.964Zm-10.765.104c.079.01.061.032.038.06a.185.185 0 0 0-.02.028c-.187.344-.52.725-.867 1.122-.36.41-.733.838-.974 1.259-.26.455-.427.878-.573 1.383-.144-1.229.739-2.12 1.576-2.964.295-.297.584-.589.82-.888Zm1.563-8.087c.184-.038.699.005.903.035 1.042.153 1.946.993 2.518 1.838-.061.225-.391-.237-.548-.457a1.49 1.49 0 0 0-.077-.103c-.782-.806-1.991-1.386-3.108-1.068.002-.09.26-.234.312-.245Zm5.626 12.569c.211.25.19 2.11.035 2.17a.328.328 0 0 1-.191-.122c-.097-.128-.16-1.15-.174-1.4l-.003-.04c-.007-.105-.019-.258.072-.31l.174 1.435c.008-.057.005-.236.001-.458-.009-.519-.021-1.274.086-1.275Zm-7.258-6.932-2.344 1.978c.226-.81.868-1.147 1.523-1.492.282-.148.566-.297.82-.486Zm11.321.21c.86.386 1.84.916 2.101 1.908l-2.1-1.908Zm-7.432 6.722c.144.137.02.368-.031.465a.165.165 0 0 0-.02.043c0 .013.016.015.033.017.018.002.035.004.036.018.01.155.04.25.078.366.014.042.028.088.043.141.07-.095.062-.233.054-.37-.009-.164-.018-.327.103-.418a5.065 5.065 0 0 0-.003.734c.014.352.028.713-.032.947-.063.244-.204.17-.278-.035-.171-.476-.13-1.42.018-1.908Z" fill="#E4D6AF"></path><path d="M10.259 9.077c.898-.021 2.166.45 2.726 1.173.062.08.449.642.208.56-.023-.008-.139-.152-.271-.316h-.001c-.152-.189-.325-.403-.405-.472-.329-.282-.838-.536-1.25-.665a2.705 2.705 0 0 0-.376-.075c-.245-.038-.496-.077-.631-.205Zm8.716.455c.043-.005.101.061.153.12a.54.54 0 0 0 .073.073l-.018.087c-1.23-.415-2.502.072-3.125 1.226-.07-.101.116-.32.274-.506.124-.146.23-.271.177-.3a2.258 2.258 0 0 0-.642.718l-.07-.035c.442-.732 1.286-1.273 2.136-1.348.23-.02.422.007.616.034.104.014.21.029.322.036.007 0 .028-.024.05-.05.022-.026.045-.054.054-.055Z" fill="#E4D6AF"></path><path d="M9.842 9.357c1.061-.17 2.604.52 3.177 1.453.003.034-.04.05-.086.018a.93.93 0 0 1-.125-.163c-.118-.169-.28-.4-.362-.362l.244.595c-.544-1.154-1.835-1.531-3.022-1.436-.032-.057.154-.102.174-.105Z" fill="#E4D6AF"></path><path d="M9.53 9.602c1.088-.173 2.664.29 3.038 1.453-.111-.105-.196-.223-.282-.34-.104-.144-.208-.288-.36-.413-.683-.556-1.884-.753-2.71-.455-.15-.098.292-.241.313-.245Zm8.75.175c.449-.025 1.295.124 1.39.665-.754-.709-1.843-.694-2.674-.14l-.816.788a2.512 2.512 0 0 1 2.1-1.313Zm2.327 4.096c.262.028.873 1.427.8 1.47l-1.234-1.242c.265-.087.475.198.669.459.098.133.192.26.286.329l-.52-1.016Z" fill="#E4D6AF"></path><path d="M17.794 9.287c.283-.032.67-.011.938.07.044.056-.323.045-.587.038a2.978 2.978 0 0 0-.247-.003c-.491.058-1.395.477-1.77.805-.104.09-.177.197-.247.3-.087.125-.168.243-.292.313.161-.743 1.535-1.447 2.205-1.523Zm-8.021.525c1.068-.104 2.02.412 2.622 1.278-.007.21-.352-.253-.496-.446l-.06-.08c-.82-.782-2.266-.907-3.108-.087.085-.394.678-.63 1.042-.665Z" fill="#E4D6AF"></path><path d="M9.946 10.022c.265-.013.843.083 1.077.21.163.089.94 1.021.92 1.138-.032.187-.296-.25-.422-.458a1.461 1.461 0 0 0-.064-.102c-.694-.803-1.41-.8-2.38-.473.179-.183.626-.303.87-.315Zm3.334 14.81c.202.393.211.82.22 1.25.005.22.01.44.04.658l-.086.122-.174-2.03Zm4.653-14.81c.405-.075 1.145.028 1.442.333-1.217-.593-2.152-.08-2.761 1.033.004-.453.941-1.296 1.32-1.366Zm-1.215 13.724c.18.618.056 1.254-.104 1.856-.046-.18-.085-1.904.104-1.856Zm0-10.258c.227-.115.286.455-.035.596-.582.255-.637-.479-.469-.438.046.03.072.088.097.146.037.084.073.165.164.152.111-.026.177-.249.213-.373a.302.302 0 0 1 .03-.083Zm-4.828.07c.081-.013.113.083.146.183.03.091.061.186.133.203.14.032.183-.073.221-.165.03-.072.057-.136.126-.116.265.406-.23.597-.556.386-.139-.091-.235-.463-.07-.49Z" fill="#E4D6AF"></path><path fill-rule="evenodd" clip-rule="evenodd" d="m10.397 11.502.053.026c.023.01.09.049.178.098l.002.002c.232.131.596.339.618.302-.077-.295-.307-.523-.52-.717-1.513-1.375-4.31-.267-3.056 1.838.22.369.34.327.48.28.077-.027.16-.055.266-.018l.035.07-.13.098-.252.007c-.19.103 1.284.635 1.39.49l-.21-.14.643-.017a2.123 2.123 0 0 0-.253-.023c-.196-.011-.424-.024-.528-.1-.163-.117.053-.077.289-.033.213.04.442.083.423.016-.335-.023-.554-.181-.782-.346a2.38 2.38 0 0 0-.468-.284c.547.08.482.045.305-.047-.12-.062-.292-.152-.358-.25l.504.087-.695-.35c.021-.007.102.015.2.04.197.052.464.123.46.03l-.729-.28h.66l-.695-.316.73.035-.695-.28.73.07c-.03-.038-.145-.087-.266-.14-.17-.072-.352-.15-.325-.21l.642.228c-.161-.155-.148-.242-.136-.32.013-.084.024-.157-.194-.293.055-.102.41.269.47.333.459.042.871.28 1.284.519.25.145.502.29.764.391.189-.098-.375-.389-.828-.621-.278-.143-.514-.264-.509-.307.02-.102.356.061.503.133Zm.167-.246.025-.008.208.262c-.02.045-.286-.07-.312-.087a.285.285 0 0 0-.05-.025c-.028-.011-.051-.02-.055-.045v-.018a.745.745 0 0 1 .184-.079Zm-2.736 1.672.434.228c-.285.204-.388.095-.434-.228Zm1.458-1.96.504.332c-.028.079-.758-.256-.504-.332Zm-1.701 1.295c.015-.011.322.23.173.28-.178.06-.245-.224-.173-.28Zm-.07-.245c.07-.053.252.113.26.193-.024.081-.4-.085-.26-.193Zm.14.63c.012-.007.262.088.26.123-.12.154-.371-.06-.26-.123Zm.763-1.505.33.227c-.01.02-.438-.061-.33-.227Zm-.347.035c.054-.01.303.24.173.245-.064.003-.2-.17-.173-.245Zm1.831-.084c.033.018.065.036.096.049.019.008.053.01.09.014.093.008.208.017.153.108-.022.038-.136-.027-.2-.065-.021-.011-.036-.02-.043-.022l-.075-.023a.592.592 0 0 1-.272-.135c.09-.016.172.03.251.074Zm-2.283.68c.043-.002.104.055.122.087.116.211-.305-.081-.122-.088Zm0-.246c.037-.025.132.024.122.088-.089.072-.201-.034-.122-.088Zm2.466-.63a.552.552 0 0 1 .121.087c-.03.08-.205-.055-.121-.087Zm-2.292.35c.12-.015.084.132-.035.07-.034-.018.027-.07.035-.07Zm.764-.35c.006-.002.1.081.07.105-.052.02-.123-.09-.07-.105Zm.677 7.597.062-.092c.346-.513.702-1.04 1.188-1.431-.028.248-.235.435-.435.616-.094.086-.187.17-.26.26l-.036.044a8.31 8.31 0 0 0-.484.638c-.82 1.27-1.386 2.915-1.233 4.446l.052-.963c-.067-1.024 1.646-4.4 2.483-4.744a.88.88 0 0 0 .03-.012c.064-.029.103-.046.092.065-1 1.199-1.939 2.56-2.275 4.114.441-1.48 1.297-2.792 2.327-3.921.228.048-.458.805-.538.892-.014.107.164-.052.224-.106l.018-.016c-.004.006-.001.023 0 .041.003.02.006.04 0 .046-.06.072-.148.144-.242.22-.186.152-.393.32-.435.533.179-.276 1.431-1.105 1.667-1.015.137.052-.078.15-.23.22-.052.025-.097.046-.117.06-.3.208-.68.516-.92.788-.04.044-.128.19-.213.328-.087.143-.17.278-.187.284-.056.021-.069-.014-.08-.045-.016-.047-.028-.082-.18.098-.353.418-.786 1.591-.903 2.135-.234 1.088-.298 2.34-.017 3.414-1.57-2.159-.72-4.884.642-6.897Zm-1.128 4.762c.046.063.026.198.01.301l-.01.084-.052-.158.052-.227Zm.208-.316.07-.42-.087.158.017.263Zm-.07 1.016c.035-.007.085.132.036.175-.022-.026-.086-.165-.035-.175Z" fill="#E4D6AF"></path><path d="M10.45 18.285a.919.919 0 0 0 .076-.117c.054-.093.112-.191.219-.233-.008.124-.17.252-.27.33l-.026.02Zm-.816-5.007c.1-.013.84.056.816.193-.091.166-1.12.029-1.077-.105.064-.033.197-.08.26-.088Z" fill="#E4D6AF"></path><path fill-rule="evenodd" clip-rule="evenodd" d="M19.2 18.495c-.139-.21-.309-.405-.478-.601-.294-.338-.587-.675-.72-1.08.204.29.429.561.654.833.21.254.421.509.614.778.99 1.38 1.573 3.012 1.459 4.744-.052.78-.258 1.709-.886 2.223.495-1.703.207-3.88-.607-5.444l-.002-.003c-.011-.022-.091-.18-.103-.067.475 1.091.886 2.253.834 3.466l-.174 1.015-.032-.362a15.608 15.608 0 0 0-.176-1.459c-.135-.727-.375-1.53-.59-2.24.163-.124.105-.13.024-.137-.048-.004-.103-.01-.129-.038-.027-.032-.05-.13-.072-.23a1.022 1.022 0 0 0-.067-.226 4.71 4.71 0 0 0-.885-1.102 1.56 1.56 0 0 0-.135-.09c-.207-.132-.547-.348-.386-.4.063 0 .123.03.179.056l.03.014c.097.044.387.275.643.478.21.169.398.318.433.327.023.006.073.007.087-.018-.1-.105-.19-.22-.28-.334a8.412 8.412 0 0 0-.137-.173 4.944 4.944 0 0 0-.144-.16l-.005-.006c-.231-.25-.607-.659-.58-.797l.052-.053c.096.108.192.215.289.321l.003.003c.164.182.329.363.49.552.698.82 1.305 1.728 1.614 2.765l-.087-.437c.041-.473-.926-1.688-1.578-2.507-.32-.402-.565-.71-.575-.784-.008-.064-.003-.162.087-.158.132.007 1.504 1.836 1.65 2.083.344.587.715 1.57.833 2.241.09.513.089 1.057.087 1.58v.083c.222-1.615-.35-3.328-1.233-4.656Zm1.095 5.287c.009.182-.034.442-.139.595.017-.19.059-.423.139-.595Zm-.028-.82c.018-.13.043-.31-.041-.405l-.007.048c-.018.131-.043.311.041.407l.007-.05Zm.167.33c.096.025.051.237.035.31v.005c-.096-.026-.052-.238-.036-.311v-.004Zm-2.119-4.377c.125-.019.159.11.035.07-.01-.003-.069-.052-.035-.07Z" fill="#E4D6AF"></path><path d="M18.072 10.197c.035-.003.178-.01.191.018-.682.178-1.04.723-1.405 1.276l-.001.002c.038-.478.757-1.246 1.215-1.296ZM8.28 14.049l-.608.612-.66.595c.272-.468.742-.817 1.172-1.137l.095-.07Zm-.313-.176c.031-.004.082.03.086.053.006.029-.155.184-.344.366-.248.238-.544.523-.576.632-.13-.216.766-1.04.834-1.05Zm2.223-1.26c.097-.02.195.008.29.034.055.015.108.03.16.036h-.208c.049.123.146.104.25.084.104-.02.214-.042.289.074-.212.095-.44.046-.664-.002a2.087 2.087 0 0 0-.291-.05c-.015-.06.143-.17.173-.176Zm8.542.665c.126-.01.353-.027.434.053 0 .061-.855.318-.972.14-.003-.062.476-.187.538-.193Zm-7.05 7.212c.154.003-.199.965-.312 1.086 0-.387.087-.772.312-1.085Zm4.55.84c.128.347.172.68.07 1.05-.107-.298-.24-.758-.07-1.05Zm-5.487-6.056.625 1.47c-.101.047-.614-1.111-.643-1.242l-.005-.023c-.015-.066-.039-.168.023-.205Zm2.396-.455-.434.682-.573.683c.294-.482.637-.94 1.007-1.365Zm-2.535-4.552c.213-.029 1.03.91 1.094 1.138.004.016.01.029.015.04.014.031.02.045-.033.083l-.081-.146c-.104-.188-.215-.39-.353-.537a1.97 1.97 0 0 0-.36-.266c-.122-.076-.233-.147-.282-.207-.011-.014-.022-.023-.03-.03-.025-.023-.028-.026.03-.075Zm.521-.035c.273.11.528.277.712.508.027.034.389.575.226.578-.215-.464-.534-.787-.938-1.086Zm6.737 5.217c.061.02-.19.61-.366 1.02a5.297 5.297 0 0 0-.155.38c-.07-.147.45-1.424.521-1.4Zm-9.342-1.261c.033 0 .08.028.087.053.02.081-.797.584-.938.63.067-.12.797-.68.851-.683Zm3.82 7.108-.07 1.085c-.105-.313-.046-.78.07-1.085Zm-1.979-9.173c1.103.203.573.488-.087.052l.087-.052ZM8.904 25.952c.127-.06.372.267.278.385-.172-.167-.177-.16-.197-.13-.01.015-.023.036-.063.043-.103.017-.098-.26-.018-.298Zm1.007-13.129.886.263c-.09.064-1.093-.124-.886-.263Zm10.037 1.261.59.665c-.244-.133-.527-.376-.59-.665Zm-1.771-1.751h.027c.023-.003.045-.005.06.017.072.124-.602.27-.695.245-.044-.077.574-.264.608-.262Zm-7.884 0c.057-.008.686.182.712.298-.106.041-.722-.196-.746-.228-.036-.018.028-.07.034-.07Zm8.127.595a.89.89 0 0 1 .146 0c.044.001.088.003.131 0-.227.135-.61.197-.885.158a2.54 2.54 0 0 1 .607-.158Zm-.07-.21.028-.002c.075-.005.154-.01.198.055-.001.042-.737.176-.834.105l.072-.023c.164-.052.407-.128.536-.135Zm-1.458 3.956.173.385c.014.005.04-.021.067-.05.076-.079.167-.174.072.33-.063-.047-.42-.64-.312-.665Zm1.285-4.551.015-.001c.028-.003.055-.005.071.018.016.042-.69.342-.798.28.144-.09.564-.29.712-.297Zm-1.042-1.751-.695.84.156-.332.539-.508Zm-1.737-.175c.017.094-.214.458-.26.508l-.016.017c-.037.043-.073.084-.14.07l.416-.595Zm3.236 2.871h-.006a.881.881 0 0 0-.174.075c-.142.07-.33.161-.434.153 0 .166.725-.15.695-.21-.018-.026-.052-.022-.08-.018Zm-.197-.438c-.046-.067-.123-.06-.191-.052a.668.668 0 0 0-.117.05c-.08.037-.177.084-.23.09-.02.002-.036-.015-.052-.034-.032-.036-.067-.075-.14.017.1.114.728-.027.73-.07Zm-8.491.543.643.123c.002.089-.612-.035-.643-.123Zm5.556 8.717c.031.243.04.5-.034.736-.037 0-.044-.675.034-.735Zm1.008-.35c.108.121.031.465-.035.596l.035-.595Zm-.07-8.087c.198-.08.257.203.139.245-.052.019-.256-.198-.139-.245Zm1.667.28c.027-.013.324.487.208.56l-.208-.56Z" fill="#E4D6AF"></path><path fill-rule="evenodd" clip-rule="evenodd" d="M20.347 13.61c-.327.204-.973.438-1.355.403-.208-.018-.337-.126-.486-.262.1.02.155.053.207.083.067.039.128.075.28.075.14 0 .311-.071.453-.13l.067-.028h-.312l.295-.263-.538.123.729-.49-.191-.053.434-.227h-.417l.66-.28-.694.07.729-.316-.695.07c.06-.094.24-.146.41-.196.225-.066.435-.128.337-.276-.195.092-.503.229-.712.157l.643-.297c-.03-.132-.242-.012-.428.093-.138.077-.261.147-.284.1l.347-.246c-.03-.045-.116-.01-.2.023-.096.038-.19.075-.2-.005l.643-.263c-.185-.035-.36.045-.526.12a5.598 5.598 0 0 1-.082.038l-.052-.053.26-.192c.057-.124-.165-.016-.281.04a.463.463 0 0 1-.066.03c-.077.01-.157.009-.238.006a1.11 1.11 0 0 0-.352.029.52.52 0 0 0-.175.114.6.6 0 0 1-.137.096c-.032.013-.062-.024-.082-.049-.01-.012-.018-.022-.023-.021-.008 0-.016.023-.027.055-.02.056-.05.142-.112.19-.074.057-.913.467-.85.227.023-.092.94-.563 1.408-.802l.241-.125.278-.28c-.022.01-.073.048-.137.095-.171.125-.433.317-.47.237-.007-.013.031-.032.08-.056.087-.044.206-.104.145-.171-.27.295-.568.417-.904.555h-.002a10 10 0 0 0-.257.11c-.04.017-.13.071-.217.124-.103.062-.204.123-.217.12-.227-.044.361-.703.434-.77.818-.747 2.904-.824 3.299.438.233.748-.188 2.03-1.146 1.926l.486.105Zm-2.645-2.145c.003.018.025.024.035.026l.006.002.694-.263c-.017-.072-.523.119-.59.158a.207.207 0 0 1-.047.013c-.037.008-.082.018-.092.04a.04.04 0 0 0-.006.024Zm2.95 1.494c-.025-.015-.05-.03-.08-.03-.01 0-.188.059-.19.087l.173.07-.19.228.33-.333a.3.3 0 0 1-.044-.022Zm-.843-1.991c.187-.025-.244.364-.33.262l.33-.262Zm.972 1.47h.026c.024-.002.049-.004.06.018-.112.345-.413-.04-.086-.018Zm-1.163-1.488c-.014-.024-.064-.023-.087-.017a2.079 2.079 0 0 0-.199.172l-.062.056c.034.07.205-.084.295-.165.027-.025.046-.043.053-.046Zm1.267 1.243c.13.062-.164.245-.26.088.02-.003.078-.025.135-.046a.705.705 0 0 1 .125-.042Zm-.188-.446c.113-.073.266-.17.084-.149-.013.002-.23.146-.174.21a.913.913 0 0 1 .09-.061Zm-.055-.359a.644.644 0 0 1 .056 0h.048v.07l-.225.018c-.024-.038.114-.087.121-.088Zm.052.648c.01.021.316-.094.191-.158-.01.007-.029.016-.052.027-.067.03-.165.075-.139.13Zm-.26-.788.19.053c-.06.052-.29.006-.19-.053Zm.156 1.488c.096.147.283-.027.156-.053l-.03.012a.332.332 0 0 1-.126.041Zm-.642-1.628.087.053-.157.087.07-.14Zm-1.806 0c.015-.009.13-.006.156.018-.058.106-.245.036-.156-.018Zm2.118.21c.171-.045.037.137-.035.105-.048-.021.01-.098.035-.105Zm-.104-.455c.072-.01.032.145-.07.14-.019-.033.05-.137.07-.14Zm-2.31.42c-.03.005-.032-.015-.033-.027l-.001-.008c.17-.084.153-.07.106-.03a.599.599 0 0 0-.071.065Zm.712-.385c.06-.027.074.088.035.105-.06.027-.073-.088-.035-.105Z" fill="#E4D6AF"></path><path d="M8.69 25.939a.58.58 0 0 1-.029-.057c-.09-.004-.036.378.07.35.105-.028.012-.197-.041-.293Zm9.278-7.584-.347-.42c-.083.038.217.304.317.393l.03.027Zm1.83-4.004c-.077-.068-.152-.133-.163-.128-.112.06.245.32.33.263a1.319 1.319 0 0 1-.167-.135Zm-7.355 2.324c.052-.11.135-.284.073-.35l-.033.065c-.055.11-.117.233-.071.354.006-.017.018-.04.03-.069Zm-.239-3.152c.111-.042.173.136.069.175-.112.043-.174-.135-.07-.175Zm-.14 2.801c.095.046-.066.295-.104.28l.104-.28Zm-.208 4.201c.096.074-.05.225-.104.28l.104-.28Zm6.112-5.741c.047.015-.024.222-.07.245-.064-.048.044-.254.07-.245Zm-5.226 1.557c-.01-.022-.032-.02-.052-.017-.035.006-.134.144-.07.175l.122-.157Zm-.712 2.574c.122-.031.155.11.035.105-.042-.002-.127-.082-.035-.105Zm4.41-4.201c.058-.01.033.137 0 .14-.048.003-.073-.129 0-.14Zm.799 1.96c.027.026.03.123 0 .14-.018.011-.095-.099 0-.14Zm-4.654.036c.049.074.078-.007.035-.07a.114.114 0 0 1-.022.02c-.017.013-.03.023-.013.05Zm3.543-.42c.052-.02.076.05.034.07-.05.022-.076-.055-.034-.07Zm1.562-2.592c.049.007-.012.108-.035.105-.048-.006.013-.108.035-.105Zm-6.598-1.26-.035-.035v.07h.035v-.035Z" fill="#E4D6AF"></path><path fill-rule="evenodd" clip-rule="evenodd" d="M15.694 14.994c.01.006.036.003.061 0 .025-.004.05-.007.06 0 .22.139.438.475.639.785.118.183.23.356.333.475.026-.014.038-.037.04-.069l.273.7c.057-.24-.016-.464-.09-.69a2.373 2.373 0 0 1-.101-.379l.26.403c.035-.027-.019-.177-.069-.315-.053-.147-.101-.281-.035-.245.006.003.012.023.02.046.025.076.063.19.12-.081.21.188.123.4.044.588-.047.114-.09.219-.062.305.086.261.309-.656.243-.7.114-.093.102-.031.086.055-.011.06-.025.133 0 .172.18-.329.115-.601-.017-.928l.243.28-.208-.49.07-.035.19.298.052-.053-.208-.42.208.21-.138-.385.139.105-.07-.245h.139c.008-.025-.004-.07-.017-.114-.022-.08-.044-.161.052-.131.288.9-.073 1.753-.425 2.582-.088.209-.176.416-.253.622.779-1.062 1.176-2.55.556-3.782-.024.064-.03.22-.035.336-.006.135-.009.212-.034.014-.174-.028-.186.013-.207.081a.304.304 0 0 1-.054.112c-.042.053-.08.062-.112.07-.025.006-.046.011-.061.035-.009.013-.005.055 0 .099a.334.334 0 0 1 0 .111c-.002.004-.013.006-.028.009-.07.012-.235.04-.129.359l-.104-.175-.07.21-.104-.175c-.035.29-.038.281-.068.214-.032-.074-.095-.216-.261-.127l.017.403-.139-.21-.087.052.362.924c-.15-.25-.417-.576-.596-.794-.102-.125-.176-.214-.182-.235-.055-.174.023-1.16.104-1.33.176-.369.97-.172 1.25.035-.06.244-.347.572-.573.647a.925.925 0 0 1-.228.03c-.136.006-.277.014-.345.093-.194.227.084.658.226.858-.29-.649-.139-.661.143-.684.14-.01.314-.025.482-.122.16-.092.277-.304.382-.495.053-.098.104-.19.156-.257.029-.038.072-.052.114-.066.066-.022.128-.043.13-.144 0-.242-.971-1.564-1.199-1.768-1.338-1.203-4.05-.97-5.088.542-.982 1.433-1.394 3.22-.381 4.762.053.081.436.638.416.315-.002-.033-.129-.237-.277-.476-.185-.298-.404-.65-.452-.785-.279-.778-.282-1.907.191-2.608.069.097.132.205.196.314.194.33.395.673.776.771.08.021.173.022.263.022.222.002.433.003.432.293.235-.462-.098-.515-.45-.572-.166-.027-.337-.055-.453-.128-.987-.62.687-1.09.955-.437.047.114.19.943.174 1.05-.005.027-.108.167-.248.355-.353.478-.938 1.268-.707 1.308.124-.369.993-1.638 1.284-1.75.004-.002.01.002.021.008.045.024.149.08.257-.079.009.069-.076.129-.15.18-.095.067-.169.118.029.153-.347.223-.507.552-.672.893-.07.146-.143.294-.231.438.195-.118.295-.338.396-.56.078-.173.157-.346.281-.473-.008.097-.145.362-.267.596-.18.348-.326.627.041.191-.317.858.084.76.53.653a2.58 2.58 0 0 1 .39-.075 7.13 7.13 0 0 1 .854.005c.116.005.231.01.345.013l-1.459.105c.342.035.425.25.516.49.043.11.088.227.161.332.095-.017.019-.207-.044-.364-.035-.088-.066-.165-.06-.196.061-.024.128.164.165.267.013.036.022.062.026.066.008.007.019 0 .032-.007.042-.024.106-.06.16.234.033-.054.073-.134.118-.223.106-.213.236-.474.367-.547.198-.11.351-.066.49-.028.12.034.228.064.344-.007.143-.087.176-.264.208-.438.018-.093.035-.186.07-.262.32.264.303 1.447.104.42l-.008.022c-.073.22-.126.378-.305.538-.173.156-.425.228-.67.3-.505.145-.988.284-.736 1.118.153.508 1.97 1.256 2.257.49l-.382-.14c.058-.008.125-.006.194-.003.184.006.384.013.466-.172.1-.225-.061-.27-.198-.308-.103-.028-.192-.053-.15-.147.05-.107.167-.028.24.022.026.018.047.032.056.03.228-.037.08-.733.017-.892-.023-.058-.095-.079-.14-.091-.018-.006-.031-.01-.034-.014a1.602 1.602 0 0 1-.073-.33c-.035-.21-.077-.466-.17-.65-.05-.102-.244-.44-.382-.42.123.198.437.762.382.98-.014.055-.071.058-.104 0-.098-.175-.196-.484-.292-.787a6.398 6.398 0 0 0-.229-.649l-.004-.009c-.02-.045-.08-.18-.135-.13l.174.35c-.051.133-.22-.306-.287-.478-.013-.035-.022-.06-.025-.065Zm-.024-.063a.33.33 0 0 0 .024.063c-.034-.019-.068-.02-.098-.022-.04-.002-.072-.004-.08-.045a.358.358 0 0 1 .021-.143c.092.01.114.082.133.147Zm-3.73-2.991c.09-.075.253-.213.194-.272a.525.525 0 0 1-.1.101c-.074.062-.153.13-.143.214a.717.717 0 0 1 .05-.043Zm-.396.498c.055.018-.107.287-.236.505-.076.127-.141.235-.146.266-.086-.01.316-.723.382-.77Zm5.17.643c-.118.011-.229.021-.308-.012-.16-.068-.587.07-.174.07.016.011.125.006.241.001a1.78 1.78 0 0 1 .28-.001c.133.026.244.086.355.145.081.043.163.087.252.117-.112-.369-.397-.342-.645-.32Zm-3.017 3.314c.342-.017.7.008 1.056.032.287.02.575.04.854.038.003 0 .01-.008.02-.018.033-.036.092-.099.101.07l-2.622.018c-.188-.096.544-.138.59-.14Zm2.043-3.185c.044-.017.085-.032.093-.054.15-.076.048-.069-.105-.035 0 0-.185.045-.173.175.001.018.074.108.132.181.04.05.075.092.076.1a.432.432 0 0 1-.014.175c-.02.089-.038.173.031.227a1.94 1.94 0 0 1 .027-.26c.02-.145.042-.3.026-.353-.027-.086-.085-.021-.11.007-.007.007-.01.011-.012.01-.162-.1-.061-.139.03-.173Zm-3.675-.106.02-.002c.084-.007.219-.018.257.072-.048.007-.12.01-.194.012a1.31 1.31 0 0 0-.257.023 1.858 1.858 0 0 0-.267.145c-.202.12-.434.26-.445.187-.025-.163.758-.428.886-.437Zm1.024.157c-.011-.047-.12-.07-.156-.052-.09.043-.08.623.034.595.001-.044.06-.162.105-.253.03-.06.054-.107.052-.115-.001-.004-.013-.006-.028-.01-.052-.013-.15-.036-.007-.165Zm.087.403-.087.332.226-.192c-.028.078-.06.148-.092.216-.07.15-.138.295-.151.52-.005-.05-.013-.104-.021-.16-.04-.259-.085-.565.125-.716Zm3.507 3.676c.26-.002.39.364.209.525l-.209-.525Zm-.416.7c.046-.017.323-.02.295.088-.092.154-.507-.012-.295-.088Zm.486.42c.279.03-.161.26-.295.088 0-.036.28-.09.295-.088Zm-1.042-.42c.022-.007.298.012.26.123-.099.099-.463-.057-.26-.123Zm-.208-.525c.233-.062.178.243-.035.175-.096-.03-.02-.16.035-.175Zm1.014.034-.007.001a.521.521 0 0 0-.14.105c-.041.105.209.023.261-.018.018-.105-.046-.097-.114-.088Zm-.563.001c.045-.016.22 0 .191.087-.043.133-.395-.013-.19-.087Zm-1.52-.754-.425-.051c-.008.162.11.126.237.087a.54.54 0 0 1 .187-.036Zm0 0 .01.001h-.011Zm3.048-3.482c.122-.033.103.214-.035.21-.08-.043 0-.2.035-.21Zm-1.98.175c.042-.002.18.234.105.28-.036-.023-.242-.276-.104-.28Zm.695 5.496.4.053c-.064.058-.392.046-.4-.053Zm-1.77-2.03c.1-.002.05.248 0 .245-.048-.081-.096-.173 0-.245Zm1.353-.91c.037-.029.179.122.105.175-.078.055-.177-.12-.105-.175Zm-.069-.63c.029.018.182.184.139.21-.081.034-.203-.181-.139-.21Zm-.174-1.261c.057-.027.196.182.14.21-.071.02-.16-.2-.14-.21Zm-1.996.262c-.019-.025-.06-.023-.087-.017-.015.003-.163.13-.191.158.053.04.283-.126.278-.14Zm1.892-.612c.08.012.16.103.104.175l-.104-.175Zm-2.188.42c.02.016.249-.158.14-.175l-.026.016c-.06.037-.123.075-.114.159Zm2.466.35c.06-.024.12.169.07.21l-.07-.21Zm-4.028-2.276c.013.005.146-.198.104-.245-.01.017-.026.035-.042.055-.047.056-.101.122-.062.19Zm4.236 3.431c.076.007.149.186.07.176-.02-.003-.112-.135-.07-.176Zm-2.465-1.505c.04.055-.148.198-.191.158a.725.725 0 0 1 .19-.158Zm3.854-1.26.035.21c-.06-.057-.106-.17-.035-.21Zm-1.979 1.505c.043-.02.166.116.104.14-.008.004-.183-.103-.104-.14Zm0-.175c.074-.015.148.05.156.123-.038-.003-.175-.07-.156-.123Zm.035-.245.07.14c-.077 0-.117-.08-.07-.14Zm-2.084 2.206c.108-.056.1.102.035.105-.076.003-.066-.09-.035-.105Zm1.354.49c.077-.04.07.157-.034.14-.013-.007.024-.135.034-.14Zm1.58 1.715c-.175.029-.116.089 0 .07h.023c.018.002.035.004.047-.017.002-.066-.01-.064-.05-.056l-.008.001-.011.002Zm-.017-1.75c.028.013.03.115 0 .14-.046.039-.037-.158 0-.14Zm-.73 1.4.04-.001c.045-.004.09-.007.082.054-.018.004-.158-.014-.121-.053Zm-2.326-1.995.018.052-.053.017-.017-.017.052-.053Zm4.237-.98c.087.132.219.363.174.524l-.174-.525Zm-.104.174.173.42c-.102.057-.216-.34-.173-.42Zm-.59-.56a.347.347 0 0 0 .02.08c.022.063.043.125-.02.165-.03-.031-.026-.244 0-.245Zm.867-.35c.075-.054.043.124 0 .105-.026-.012-.029-.084 0-.105Zm-7.478 1.404c.1-.141.26-.364.186-.424-.354.47-.735.916-1.117 1.363-.498.584-.997 1.168-1.436 1.805-.935 1.358-1.702 2.769-.781 4.394.024-.183.043-.37.063-.557.095-.908.192-1.847.823-2.541-.45.875-.73 1.896-.59 2.905.031.234.118.465.2.687l.025.066c.062-.338.087-.68.112-1.023.03-.402.06-.804.148-1.2.21-.934.779-2.05 1.32-2.836.075-.109.308-.389.569-.7.423-.508.917-1.1.924-1.19.01-.14-.075-.245-.208-.14-.167.132-1.038 1.263-1.39 1.72l-.103.135a4.67 4.67 0 0 0-.208.342c-.115.2-.236.41-.261.41-.211.01.097-.345.293-.572.082-.095.145-.167.14-.18-.007-.026-.05-.007-.101.016-.065.03-.142.064-.176.02a.327.327 0 0 1 .159-.072c.048-.012.097-.024.136-.051.139-.098 1.562-1.912 1.615-2.049a.486.486 0 0 0 .035-.245c-.231.077-.404.344-.56.586-.07.108-.137.21-.204.29-.227.266-.466.53-.708.795-.962 1.057-1.953 2.147-2.244 3.581-.051-.177.045-.51.104-.7.345-1.104 1.16-1.979 1.96-2.836.522-.56 1.037-1.112 1.409-1.716l.024-.038c.072-.115.163-.258.132-.4-.054.043-.09.132-.125.222-.056.14-.113.281-.24.252-.004-.009.03-.056.075-.12Zm-2.4 3.805c.104-.156.212-.32.26-.483-.304.382-.64.85-.765 1.33.096-.187.205-.365.315-.544l.085-.138c.032-.054.069-.109.106-.165Z" fill="#E4D6AF"></path><path fill-rule="evenodd" clip-rule="evenodd" d="M18.437 15.607c-.027-.023-.131-.107-.156-.088-.128.099.222.714.295.823.334.5.776.95 1.223 1.408.851.87 1.721 1.76 1.902 3.038l.001.005c.007.043.052.318-.036.275-.09-.816-.496-1.559-.972-2.206-.283-.385-.66-.78-1.039-1.177-.5-.524-1.002-1.05-1.288-1.553-.05-.088-.225-.38-.208-.105.003.047.392.75.451.84.198.3.451.58.706.86.353.39.71.783.927 1.24-.3-.372-.605-.74-.91-1.11-.254-.306-.507-.612-.757-.92a1.426 1.426 0 0 1-.084-.128c-.143-.23-.4-.644-.472-.397-.064.221.533.88.924 1.312.131.145.24.264.291.333 1 1.315 1.613 2.666 1.737 4.341.007.1-.001.211-.01.328-.02.253-.04.529.097.74.425-.916.22-1.948-.018-2.888.349.455.387 1.041.425 1.617.014.224.029.446.061.659.565-.631.433-2.03.174-2.801-.233-.693-2.693-3.972-3.264-4.447Zm2.24 3.553.032.04c.177.217.395.484.42.766l-.452-.806Zm.556 1.47-.382-.804c-.053.035-.045.055-.03.09l.012.032c.036.111.168.317.278.488.048.076.092.144.122.195Zm-5.088-.997c-.285-.445-1.673-.594-2.17-.543-.312.032-1.232.283-1.407.543-.273.406-.23 1.052.295 1.207l.087-.087a.778.778 0 0 0-.045-.227c-.041-.132-.077-.246.062-.456.044.133.037.273.03.405-.01.234-.02.444.248.54v-.665c.015.06.022.123.03.186.018.157.035.31.178.41.085.001.087-.088.09-.185.002-.087.005-.18.067-.218a.696.696 0 0 0 .156.578c.127-.054.184-.036.242-.018.022.007.044.015.07.018.674.079 1.55-.012 1.91-.595l-.017.227c.4-.106.369-.817.174-1.12Zm-2.275-.368c.048.086-.32.427-.364.333l.364-.333Zm-.868.14c.15-.019-.21.382-.243.385l.243-.385Zm.368.18c.105-.068.241-.157.188-.25l-.278.315c.02-.018.053-.04.09-.065Zm-.02-.285c-.015.117-.15.237-.252.329l-.061.056c.018-.146.172-.271.284-.361l.029-.024Zm2.048 1.086c.021.003.058.4-.034.42-.052-.048.004-.425.034-.42Zm-.555.07.07.49c-.111-.032-.1-.49-.07-.49Zm.243.49c.02-.001.058-.371-.035-.385-.04.105-.013.207.015.31l.02.075Zm-.66-.35c.027.004.028.3 0 .35-.096-.084-.05-.211-.013-.313l.013-.037Zm1.25-.28c.095.015.051.22.035.28-.073-.047-.062-.212-.035-.28Zm-.868-1.05c.038-.018.202.16.104.21a.36.36 0 0 0-.01-.014c-.038-.046-.143-.174-.094-.197Zm-.677.052c-.014-.025-.063-.024-.087-.018-.01.003-.154.135-.139.175l.226-.157Zm.885-.018c.071.005.104.049.139.096.016.02.032.043.052.062-.06.047-.171-.108-.19-.158Zm.313 0 .139.175c-.063.028-.17-.105-.14-.175Zm-1.459 1.296c.096.004.058.143 0 .175a.19.19 0 0 1 0-.175Zm.764-1.33c.01-.005.094.107.07.14-.07.018-.123-.119-.07-.14Zm-.382.034c.052.03.019.14-.07.105-.028-.025.065-.108.07-.105Zm.174 0c.023.003.083.087.035.105-.028.01-.141-.117-.035-.105Zm-2.014-3.291c.023.008-.041.176-.12.381-.104.276-.233.617-.21.722.034.155.073-.055.098-.193a.484.484 0 0 1 .024-.105c.02-.015.494-.009.52 0 .01.003.051.05.104.107.081.09.19.21.244.243.154.096.343.136.528.176.392.083.764.163.74.752-.034.775-.995.99-1.68 1.143a7.835 7.835 0 0 0-.283.065l.052-.123-.208-.07.52-.175c-.434.123-.476.055-.538-.047a.377.377 0 0 0-.138-.145c-.014-.008-.04-.008-.074-.008-.088 0-.225 0-.291-.15-.114-.257.079-.311.22-.35.068-.02.125-.036.127-.07.01-.126-.177-.093-.293-.073-.054.01-.093.017-.089.003a9.187 9.187 0 0 0-.009-.085c-.024-.229-.052-.49.079-.685a.364.364 0 0 1 .16-.12c.038-.018.07-.033.083-.055.016-.027.05-.16.087-.307.042-.167.088-.353.121-.428.02-.047.202-.411.226-.403Zm-.156 1.383a.41.41 0 0 0-.296-.052c-.227.063-.305.614 0 .455.128-.067.053-.14-.014-.203-.044-.043-.084-.082-.055-.112l.365-.088Zm-.018.613c.099-.022.345.048.26.158-.094.123-.629-.074-.26-.158Zm-.057.472a.647.647 0 0 0-.082-.017c-.555.03.12.29.296.053-.04.004-.141-.02-.214-.036Zm-.047-.892c.073-.033.296-.001.295.122-.117.084-.512-.023-.295-.122Zm.46 1.084-.008.001c-.025.002-.28.073-.296.123l.434-.053c.016-.08-.076-.074-.13-.07Zm.339-.629c.011-.006.266-.03.26.053-.058.126-.4.024-.26-.053Zm-.278-.49c.04-.026.23.032.226.122-.09.087-.344-.045-.226-.122Zm.486-.035c.07-.043.27.02.191.122-.071.093-.302-.055-.19-.122Zm-.512-.47-.026.015v-.014l.001-.013c.004-.069.008-.148-.07-.096a.228.228 0 0 1-.012.13c-.012.033-.017.047.046.063.037.009.225.007.243-.018l-.087-.122a.596.596 0 0 1-.095.056Zm-.287-.125c.032.02.036.251-.034.21-.034-.067-.034-.163.034-.21Zm.209 1.54c.118-.062.155.085.034.07-.007 0-.069-.052-.034-.07Zm.243-.42c.048.006-.012.108-.035.105-.048-.006.012-.108.035-.105Z" fill="#E4D6AF"></path><path fill-rule="evenodd" clip-rule="evenodd" d="m18.142 13.628 3.003 3.414.1.136c.446.613.884 1.213 1.081 1.965.149.565.324 1.437-.017 1.943a3.82 3.82 0 0 1-.076-.683 3.771 3.771 0 0 0-.08-.7c-.24-.976-1.166-1.911-2.053-2.807-.581-.587-1.145-1.156-1.49-1.71l-.006-.01c-.125-.2-.314-.503-.254-.742l.677.822-.885-1.628Zm.382.526c.408.774 1.025 1.426 1.642 2.076.833.88 1.664 1.756 1.97 2.93-.394-1.063-1.146-1.887-1.896-2.71-.653-.715-1.304-1.429-1.716-2.296Zm-1.216 8.578a1.712 1.712 0 0 1-.097.22c-.045.091-.089.18-.094.217-.008.056.012.204.034.365.035.268.076.57.001.545l-.156-.543c-.197.29-.11.583-.018.89.045.15.09.301.105.458.043.463-.017.92-.078 1.378-.03.235-.062.47-.079.705.553-.823.6-1.91.573-2.888l.226.438.122-.473-.018 2.573c.683-1.06.619-2.5.4-3.694l-.07-.034c-.403.34-.5.425-.347.98-.13.168-.215-.236-.256-.432-.01-.046-.017-.08-.022-.093a1.264 1.264 0 0 0-.1-.194c-.074-.123-.145-.241-.126-.418Zm.73.49c.097.063.212.61.104.63-.136-.113-.126-.458-.104-.63Zm-.695.035.14.665c-.053.014-.274-.695-.14-.665Zm.834 1.47c.025 0 .03.338 0 .385-.027 0-.027-.385 0-.385ZM9.564 14.153h.004c.029-.003.07-.007.083.018-.337.399-.7.784-1.062 1.171-1.226 1.307-2.462 2.624-2.776 4.483-.357-1.523.623-3.255 1.737-4.236.2-.177 1.886-1.422 2.014-1.436Zm-2.118 1.822-.799.98c-.131-.062.54-.724.745-.927l.054-.053Zm-.792 1.348c.111-.137.24-.297.236-.473-.04.05-.377.478-.277.525l.041-.052Zm-.32.577c.042.014-.015.238-.069.21-.06-.042.052-.216.07-.21Z" fill="#E4D6AF"></path><path fill-rule="evenodd" clip-rule="evenodd" d="M18.871 14.188c1.212.757 2.444 1.551 3.178 2.819.414.717.962 1.84.607 2.643-.356-1.692-1.443-2.862-2.54-4.044-.428-.46-.857-.922-1.245-1.418Zm2.427 2.234c.056.049.111.097.16.148a.416.416 0 0 1 .025.048c.046.094.14.29.201.267.024-.11-.071-.187-.154-.253a.839.839 0 0 1-.072-.062l-.022-.032-.024-.036c-.128-.187-.256-.374-.457-.492.066.171.206.293.343.412Zm.56.848c.049-.023.22.172.139.21-.028-.015-.184-.19-.14-.21Zm.312.63c.042-.02.166.115.104.14-.056.023-.13-.127-.104-.14ZM9.286 21.89c.008.104.237.32.384.457.067.063.117.11.12.122.005.024-.025.102-.064.198-.074.188-.176.447-.092.52.087.075.115-.132.14-.323.017-.132.033-.256.068-.273.06-.03.309.048.33.123.018.062-.093.465-.209.89-.112.409-.23.838-.243 1-.025.306 0 .623.024.94.022.29.044.58.028.863-.694-1.442-.927-2.95-.486-4.516Zm.244 2.592c.037 0 .192-.679.069-.735l-.028.09c-.066.206-.144.453-.041.645Zm-.14-2.24.018.612-.087.122.07-.735Zm.209 2.625c.031.021.035.252-.035.21-.034-.066-.034-.163.035-.21Zm-.347-1.295c.017-.01.092.113.034.14-.064.03-.072-.12-.034-.14Zm9.718-1.369c.11-.111.23-.234.248-.312.09-.014.176.533.191.648.167 1.28-.153 2.584-.781 3.693.079-.942.08-1.817-.087-2.748a1.774 1.774 0 0 0-.099-.323c-.102-.268-.177-.464.255-.64.087.018.087.16.088.31.001.147.002.303.086.355.12-.005.01-.395-.052-.613a.912.912 0 0 1-.035-.14c.005-.044.092-.132.187-.23Zm-.133 2.734c.102-.163.048-1.219-.07-1.26l-.087.087.157 1.173Zm.312-2.66c-.023.058.014.255.043.414.02.114.038.209.026.215-.175.107-.122-.63-.069-.63Zm-.104 2.205c.077.056.077.188 0 .245a.359.359 0 0 1 0-.245Zm.104-.84c.06-.052.042.143-.035.14a.31.31 0 0 1 .035-.14Zm-9.046 1.628a5.747 5.747 0 0 1 .26-2.399c.026.072.229.226.378.34.088.067.157.12.16.133a.474.474 0 0 1-.041.14c-.066.183-.176.485-.046.577.027.006.067-.13.118-.302.089-.298.21-.706.351-.695l-.416 2.24c-.067.04-.068.008-.068-.032 0-.012 0-.026-.002-.038-.005-.026 0-.138.008-.277.014-.297.034-.718-.025-.685-.127.5-.124 1.016-.122 1.532.002.284.003.568-.017.848-.205.175-.526-1.266-.538-1.383Zm.468-2.048c.07.022-.175.672-.243.735-.067-.085.206-.747.243-.735Zm1.424.525c-.259.54-.304 1-.26 1.592.057.78.277 1.862.712 2.504l.364-3.94-.313.596-.086.858c-.133.11-.12-.262-.109-.644.012-.356.023-.72-.082-.704-.145-.036-.134.317-.123.68.011.348.022.705-.103.738v-1.68Zm.278 2.556c.02.003.059.369-.035.385-.053-.046.01-.39.035-.385Zm2.397-1.086a10.925 10.925 0 0 1-.18 2.676c-.073.435-.157.94-.411 1.28l-.504-3.624.434 1.208.018-.507c.24.467.29.15.356-.254.052-.323.113-.701.286-.78Zm-.4 2.924-.052-.228-.07.63.122-.402ZM12.364 14.82a1.783 1.783 0 0 0-.143.174c-.012.018-.027.037-.042.057-.05.062-.105.133-.083.213l.003.01c.063-.023.095-.167.111-.24.005-.022.008-.038.01-.04a.098.098 0 0 1 .028-.01c.056-.018.182-.057.233-.2.09.048-.146.375-.281.562-.041.057-.073.101-.083.12-.04.075-.078.164-.117.255-.082.195-.17.402-.3.516l.035-.385c-.136.048-.133 1.1-.087 1.137l.01-.01c.02-.026.068-.09.111-.007l-.086.157-.47-.892.14.07c-.083-.382-.03-.656.173-.98l-.26.332.156-.508c-.222.158-.22.414-.218.652 0 .084.002.166-.008.241-.278-.42-.192-.84-.017-1.278l-.139.175-.121.438c-.111-.15-.02-.321.065-.482.037-.07.073-.138.09-.2l-.277.28c-.005-.072.077-.239.153-.391.122-.248.226-.456-.1-.152-.063-.03.014-.126.095-.228.073-.093.15-.19.13-.245-.044-.083-.127.064-.211.213-.077.135-.155.273-.206.242l.4-.613c.12.125.076.262.017.403l.121-.122c.04.056.06.108.077.152.034.086.056.143.184.145-.056.149-.012.132.036.115.056-.02.118-.043.016.218l.243-.14-.035.245.157-.193c.145-.008.076.076-.005.176-.063.078-.135.166-.117.227l.313-.35c.121.033.071.088.012.155-.045.049-.094.104-.082.16.023.008.094-.063.174-.143.133-.131.29-.288.295-.155 0 .01-.046.063-.1.124Zm-.786.664-.034 1.19c-.17-.415-.166-.787.034-1.19Zm-.486.07.14-.49a1.62 1.62 0 0 1-.054.108c-.063.12-.13.246-.086.382Z" fill="#E4D6AF"></path><path fill-rule="evenodd" clip-rule="evenodd" d="m14.044 21.75.173 1.401c.038-.158.029-.403.02-.648-.011-.272-.022-.545.033-.7.009-.026.08-.083.104-.035l.017 1.208c.051.001.077-.234.105-.498.033-.305.07-.647.155-.71l.07.035c-.05.357-.045.732-.04 1.104.003.34.007.677-.03.997-.033.294-.132.568-.232.843-.104.29-.208.579-.236.89-.094.06-.07-.285-.057-.455.003-.045.006-.077.005-.088a17.24 17.24 0 0 0-.092-.802c-.055-.42-.11-.84-.117-1.263-.002-.117-.002-1.313.122-1.278Zm.278 2.242-.035.735c-.104-.24-.04-.5.035-.735Zm-2.778-5.602c.081.044-.132.19-.351.34-.197.134-.399.272-.396.342-.01.073.054.032.09.01a1.897 1.897 0 0 0 .243-.179 1.757 1.757 0 0 1 .318-.225c.041-.028.075-.05.113.01-.812.64-1.262 1.667-1.32 2.695l-.104-.49-.017 1.068c-.695-1.338.042-3.063 1.424-3.571Zm-1.042 1.12c.12.006-.058.226-.104.21l.104-.21Z" fill="#E4D6AF"></path><path d="M20.364 25.427c.123.013.163.835-.156.753-.045-.135-.01-.22.025-.302.033-.08.065-.157.027-.276-.072.097-.117.303-.147.438-.038.175-.05.23-.061-.228-.095.042-.123.157-.15.266-.033.128-.062.248-.198.224-.046-.008.037-.455.053-.473.022-.025.069-.02.106-.016.023.003.043.005.05-.001l.19-.163.003-.003c.086-.074.171-.148.258-.22Zm-1.041.455c.157-.036.217.185.138.315l.226-.227c-.156.532-.246.389-.309.288-.02-.034-.039-.063-.055-.06-.026.003-.035.034-.045.07-.016.055-.035.121-.13.104l.036-.28a.862.862 0 0 0-.112.177c-.061.116-.111.212-.305.243.072-.123.45-.606.556-.63Zm-10.905-.035c.11-.018.105.27 0 .315-.033-.055-.097-.299 0-.315Zm12.537-.525.087.122-.053.088-.086-.123.052-.087Z" fill="#E4D6AF"></path><path fill-rule="evenodd" clip-rule="evenodd" d="M7.203 24.201c.096.198.065.428.033.662-.026.183-.051.37-.016.546.083-.065.09-.22.098-.374a.922.922 0 0 1 .04-.29c.092-.087.079.435.069.826a2.8 2.8 0 0 0 .001.398c.1.287.111-.173.121-.55.006-.232.012-.432.036-.412.138.616.159.513.186.38.013-.064.027-.134.057-.135.055-.002.073.13.08.194a.129.129 0 0 0 .007.033c.034.047.106.082.179.119.093.046.187.092.203.162a3.82 3.82 0 0 1-.035.385c-.055.106-.382.05-.616.009a.916.916 0 0 0-.235-.027c-.035.012-.274.771.017.543l.052-.333c.016.31.286.306.562.302.106-.001.213-.003.307.013 1.428.244 4.153 1.58 4.497 3.134.077.348.206 1.595-.313 1.54-.026-.025-.024-.163-.02-.332.005-.273.012-.626-.101-.7-.001.072.005.16.013.256.03.392.069.913-.36 1.004-.485.102-.49-.361-.495-.857-.004-.362-.008-.741-.2-.929.006.045.014.103.025.17.09.58.288 1.87-.477 1.686-.366-.089-.391-.653-.413-1.143-.011-.244-.022-.47-.073-.608-.13.188-.08.5-.031.805.062.384.123.76-.177.876-.79.305-.704-1.073-.66-1.506-.152.272-.139.559-.125.855l.004.073-.053.088c-.19-.242-.128-.572-.07-.875.013-.072.026-.143.036-.21-.291.396-.189.963.121 1.312-.488.354-.496-.307-.501-.76a1.82 1.82 0 0 0-.02-.325c-.073-.286-.619-.359-1.23-.44-.7-.094-1.485-.2-1.756-.646-.374-.616.101-1.34.531-1.995.225-.342.437-.666.51-.945.075-.286.077-.602.08-.922.002-.361.004-.727.112-1.056Zm1.804 5.266c-.134-.278-.27-.558-.484-.784.006.192.159.406.307.613.114.16.225.315.266.455l.006.021c.016.055.022.073-.024.137-.102-.056-.34-.428-.537-.735-.145-.225-.267-.415-.296-.42-.203-.038-.013.136.06.202a.29.29 0 0 1 .027.025l.004.007c.048.08.371.62.256.64a1.146 1.146 0 0 0-.475-.106c-.251-.017-.456-.031-.567-.419-.073-.004-.043.064-.009.138.042.093.088.195-.06.177-.112-.013-.13-.112-.149-.213-.015-.082-.03-.165-.094-.207l.034.35c-.043-.006-.088-.017-.134-.027-.168-.04-.342-.081-.473.08.278.077.597.112.917.147.405.045.814.09 1.149.22.135.053.251.182.32.257.032.036.054.06.062.059.016-.003.165-.28.156-.298-.005-.012-.022-.014-.042-.017-.032-.003-.074-.009-.097-.053a9.889 9.889 0 0 1-.123-.249Zm-1.839-2.324.035.105c-.523.58-.885 1.295-.573 2.083l-.122.017c-.317-.774.111-1.613.66-2.205Zm-.378.228c.162-.172.415-.44.344-.473a2.934 2.934 0 0 0-.712.927c-.064.135-.514 1.361-.191 1.348.031-.151.048-.304.065-.457a3.31 3.31 0 0 1 .126-.68c.013-.041.221-.491.243-.526.011-.018.061-.071.125-.139Zm.413.122c.02-.008.075-.006.087.017-.185.26-.481.74-.521 1.05a1.02 1.02 0 0 0 .006.125c.016.222.046.641-.093.523-.207-.175.227-1.602.521-1.715Zm-.526-.285c.31-.328.623-.661.491-1.15l-.798 1.505a3.69 3.69 0 0 1 .307-.355Zm.7.495-.191.613c-.18-.026-.15.113-.119.258.018.085.037.173.014.232l-.156.017c-.017-.445.197-.778.452-1.12Zm-1.39 1.155.278-1.155-.022.038c-.187.327-.418.728-.255 1.117Zm5.487.14c.11-.004.323-.011.417.035.225.11-.098.108-.451.105-.252-.002-.52-.005-.614.034.165-.099.48-.167.648-.174Zm-.677.193Zm-2.813-.547c.005-.155.011-.31-.017-.45-.052.126-.121 1.092-.087 1.137.015.02.213.052.26.052-.176-.189-.166-.464-.156-.739Zm-.33-.626c-.013.052-.011.162-.01.287.005.266.01.6-.128.588-.084-.007.054-.798.138-.875Zm-.347.84.174-.91c-.02.054-.052.119-.086.189-.12.248-.273.562-.088.721Zm.556-.84-.104 1.05-.052-.507.156-.543Zm1.945 3.221a3.36 3.36 0 0 0 0-.77l-.053.402.053.368Zm.034-1.996c.088-.002.07.057.05.118-.017.055-.035.11.02.127l.19-.052-.156.157c-.111-.038-.262-.345-.104-.35Zm-1.18-1.085c.07-.006.165.381.069.385-.08-.1-.193-.275-.07-.385Zm-.452.84.104.49c-.128-.047-.118-.21-.108-.359.003-.046.006-.091.004-.13Zm.73-.14.208.385c-.085-.002-.277-.35-.209-.385Zm.624.175c.093-.053.055.057.013.175-.03.084-.06.172-.047.21-.113-.045-.005-.362.034-.385Zm2.246 1.868a1.924 1.924 0 0 1-.023-.222c-.03 0-.048.543.035.595.023-.125.005-.25-.012-.373Zm-3.774-5.124.035.315c-.155.002-.07-.314-.035-.315Zm-.277-.175c.093.093.072.24.034.35l-.034-.35Zm1.632 3.081c.078.06.051.14.025.219a.502.502 0 0 0-.025.096c-.056-.088-.096-.233 0-.315Zm1.389 1.926c.096.041.067.561.035.56l-.035-.56Zm-1.702-2.206c.052.082.096.204 0 .28-.051-.082-.096-.204 0-.28Zm-2.118.595c.062-.047.132.162.07.21-.063.048-.133-.162-.07-.21Zm.312-3.43a.584.584 0 0 1 0 .314c-.079-.063-.08-.247 0-.315Zm1.98 3.71c.046 0 .167.217.07.21-.05-.003-.187-.21-.07-.21Zm-1.042-.805c.022.026.086.165.035.175-.034.007-.084-.132-.035-.175Zm-.73-1.47c.053-.02.077.051.036.07-.051.022-.077-.055-.035-.07Zm2.64 2.485.052.018-.052.052-.017-.017.017-.053Zm11.078-5.147c.01.233 0 .486-.011.742-.018.4-.035.81.028 1.166.047.264.19.52.336.783.147.265.298.536.359.828.078.373.17 1.306-.174 1.505.128-.664.183-1.351-.191-1.943l.018.067.02.074c.107.384.197.707.153 1.137-.014.138-.128.703-.313.7.363-.846.172-1.623-.364-2.328-.029.146.066.292.165.444.065.1.132.203.165.309.166.54.149 1.155-.087 1.663-.139.023-.36.039-.622.057-.878.063-2.209.159-2.382.66-.049.142-.044.297-.04.452.005.144.009.288-.03.424-.038.135-.342.564-.45.28-.022-.057.006-.2.041-.377.075-.377.181-.912-.094-1.111.16.421.099 1.697-.486 1.75-.494.045-.423-.522-.359-1.038.035-.274.067-.533.012-.677-.108.133-.132.423-.157.73-.037.457-.077.95-.4 1.02-.64.142-.529-.873-.462-1.474.015-.137.028-.253.029-.329-.166.146-.176.48-.186.816-.012.425-.025.854-.352.918-.562.108-.545-.467-.53-.958.005-.204.01-.394-.026-.513-.114.386-.135.822-.017 1.208-.448.143-.406-.74-.382-1.015.119-1.375 1.829-2.3 2.969-2.819 1.214-.551 2.287-.79 3.629-.788v-.63c-.181.049-.157.222-.134.392.011.079.022.157.012.221-.047-.033-.072-.154-.097-.271-.027-.133-.054-.261-.111-.254-.003 0-.01.007-.02.015-.05.044-.166.147-.206-.068-.01-.057.193-1.135.295-1.103.004.12-.03.237-.065.352-.057.192-.113.38.013.576.034.023.053-.153.078-.374.034-.308.078-.702.183-.764.052.067.005.23-.043.395-.06.205-.12.413.008.446.165.042.157-.375.151-.683-.002-.122-.004-.227.005-.28.014-.08.062-.19.1-.28l.022-.053Zm-2.952 5.708c.071.018.895-1.125.764-1.226-.039.104-.28.395-.491.648-.17.204-.319.383-.325.42-.008.047-.001.144.052.158Zm1.32-1.19c.033.166-.067.27-.175.38-.087.09-.178.184-.207.32l-.104-.14c-.046.18-.173.263-.365.262l.85-.823Zm-2.934.297c.021-.104-.927-.168-1.025-.158-.027.003-.371.088-.347.175l1.371-.017Zm2.066-.333c.122.06-.51.92-.59.98-.077-.051.138-.337.33-.592.125-.166.241-.32.26-.388Zm2.361-1.26c.191.34.319.73.243 1.12l-.243-1.12Zm-3.125 2.276c.284.124.195.527.131.816v.001l-.027.128a3.867 3.867 0 0 0-.104-.945Zm1.146-.63c.174-.018.458-.718.208-.666-.03.007-.053.122-.08.256-.03.16-.068.346-.128.41Zm.833-.666c.105.072.065.61-.035.596-.115-.164-.04-.382.02-.553l.015-.043Zm.521-.385c.114.148.169.43.07.595-.127.028-.094-.515-.07-.595Zm-2.952 2.31c.12.202.157.445.07.666-.103-.204-.108-.441-.07-.665Zm3.612-1.855c.102.003-.026.469-.139.49a.493.493 0 0 1 .139-.49Zm-.973.455c.104-.004-.038.456-.069.456-.106-.104-.029-.257.033-.38l.037-.076Zm1.077-2.345-.07-.595-.003.026c-.021.181-.052.433.073.569Zm-1.458 2.52c.152.023.015.39-.07.316-.057-.05-.005-.271.07-.316Zm-2.362.316c.125-.007.27-.429.07-.316-.018.01-.012.049-.006.093.01.062.02.134-.03.153-.027.01-.052-.017-.076-.045-.034-.039-.068-.078-.114-.008l.156.123Zm3.785-.42c.188.027-.094.367-.173.245-.04-.061.159-.248.173-.245Zm-.972-.7-.035.42c-.093-.001-.054-.376.035-.42Zm-5.14 2.1c.115.042.029.56 0 .56a1.82 1.82 0 0 1 0-.56Zm3.195-1.54c.074.048-.088.439-.139.42l.14-.42Zm.348-.63c.056.138-.015.278-.105.384l.105-.385Zm-2.188 2.8c.036 0 .028-.677 0-.735l-.035.385.035.35Zm4.306-1.995c.18-.055-.052.31-.139.28-.05-.025.09-.266.139-.28Zm-.023-1.056a.914.914 0 0 1-.047-.1c-.077.097.048.32.102.416l.003.004c.065-.081-.003-.212-.058-.32Zm.092.495a.63.63 0 0 1-.07.456c-.058-.08-.001-.244.04-.364a.872.872 0 0 0 .03-.092Zm-.486.876c.089.057.22-.162.14-.245l-.031.029c-.062.057-.181.168-.109.216Zm-4.792 1.19c.038.15.001.342-.035.49-.024-.156-.05-.345.035-.49Zm2.467-1.55c.02-.112.052-.292-.036-.376l-.002.01c-.02.112-.052.291.037.375l.001-.01Zm2.499-.236c.097 0 .07.23-.035.245-.094-.03 0-.244.035-.245Zm.452-.968a1.067 1.067 0 0 1-.035-.082c-.026.06.018.382.069.385.065-.091.012-.204-.034-.303Zm.347.863c.099-.002.053.245 0 .245l-.053-.087.053-.158Zm-1.667-.385c.095.016.051.22.034.28-.094-.012-.052-.217-.034-.28Zm-1.39.105c.1-.003.05.21 0 .21-.066 0-.07-.207 0-.21Zm-.486.455.035.245c-.082-.012-.099-.25-.035-.245Zm1.771.35c.158.02-.167.283-.121.088a.481.481 0 0 1 .122-.087Zm1.529-1.015c.094.006.062.177 0 .21a.266.266 0 0 1 0-.21Zm-3.091 1.016c.011-.004.116.136.07.175-.055.025-.12-.158-.07-.175Zm-.209 0c.096.003.058.143 0 .175a.19.19 0 0 1 0-.175Zm2.71-1.47c.06-.039.073.121.034.14-.064.028-.073-.117-.035-.14Zm-.244.384c.027.026.03.123 0 .14-.018.011-.095-.099 0-.14Zm-.313.035c.064-.01.041.14-.034.105-.023-.01.029-.104.034-.105Z" fill="#E4D6AF"></path><path fill-rule="evenodd" clip-rule="evenodd" d="M21.418 25.088c.034-.415.067-.828.023-1.132l-.043.287c-.124.809-.272 1.78.06 2.497.025.052.075.11.127.171.059.07.121.142.151.214.22.521.724 1.959.122 2.328-.26.16-.893.22-1.527.283-.521.05-1.043.101-1.356.207-.099.034-.344.121-.347.245.257-.118.814-.179 1.432-.246 1.077-.118 2.336-.255 2.51-.752.122-.35-.037-.957-.174-1.295-.096-.235-.305-.507-.506-.769-.213-.276-.416-.54-.467-.736-.084-.326-.044-.816-.005-1.302Zm.857 4.19c.358-.055-.064-1.694-.348-1.89.028.149.1.324.171.502.09.223.183.45.194.636.002.033-.013.114-.03.21-.042.234-.1.56.012.542Zm-7.328-7.562.052 1.348.226-1.243c.212.979.18 2.063-.417 2.87l.139-2.975Zm.104 1.645c.034.117.013.233-.009.35-.01.058-.021.117-.025.176-.027 0-.05-.48.034-.526Zm-1.563-1.575.104 1.155c.074-.156.063-.344.053-.53-.012-.222-.024-.443.104-.608l.121 3.029c-.461-.948-.776-2.012-.382-3.046Zm.07 1.576c.027 0 .027.175 0 .175-.03-.029-.024-.175 0-.175Z" fill="#E4D6AF"></path><defs><linearGradient id="a" x1=".951" y1="34.605" x2="28.023" y2="34.605" gradientUnits="userSpaceOnUse"><stop stop-color="#243B2E"></stop><stop offset=".475" stop-color="#355945"></stop><stop offset="1" stop-color="#243B2E"></stop></linearGradient><linearGradient id="b" x1=".846" y1="4.247" x2="28.127" y2="4.247" gradientUnits="userSpaceOnUse"><stop stop-color="#243B2E"></stop><stop offset=".475" stop-color="#355945"></stop><stop offset="1" stop-color="#243B2E"></stop></linearGradient></defs></svg>